<svg width="19" height="19" viewBox="0 0 19 19" fill="none" xmlns="http://www.w3.org/2000/svg">
<path fillRule="evenodd" clipRule="evenodd" d="M9.70416 18.8639C7.83955 18.8639 6.97302 18.5917 5.46681 17.5029C4.51409 18.7278 1.49714 19.6851 1.36557 18.0473C1.36557 16.8178 1.09336 15.7789 0.784862 14.6447C0.417383 13.2474 0 11.6913 0 9.4365C0 4.05134 4.41882 0 9.65426 0C14.8942 0 19 4.25096 19 9.4864C19.0176 14.6409 14.8586 18.8364 9.70416 18.8639ZM9.78129 4.65473C7.23162 4.52317 5.24451 6.28797 4.80445 9.05541C4.4415 11.3465 5.08573 14.1366 5.63468 14.2818C5.89781 14.3453 6.56018 13.8099 6.97302 13.3971C7.65569 13.8687 8.45064 14.1519 9.27771 14.2183C11.9196 14.3453 14.177 12.3341 14.3544 9.69509C14.4576 7.05053 12.4235 4.81061 9.78129 4.65927L9.78129 4.65473Z" fill="white"/>
</svg>
