<svg width="23" height="24" viewBox="0 0 23 24" fill="none" xmlns="http://www.w3.org/2000/svg">
<path d="M2.87326 16.02L1.66926 8.84C1.48726 7.754 1.39626 7.212 1.68826 6.856C1.97926 6.5 2.51526 6.5 3.58626 6.5H18.4143C19.4853 6.5 20.0213 6.5 20.3123 6.856C20.6043 7.212 20.5123 7.754 20.3313 8.84L19.1273 16.02C18.7283 18.4 18.5293 19.589 17.7143 20.295C16.9003 21 15.7263 21 13.3783 21H8.62226C6.27426 21 5.10026 21 4.28626 20.294C3.47126 19.589 3.27226 18.399 2.87326 16.019M16.5003 6.5C16.5003 5.04131 15.9208 3.64236 14.8893 2.61091C13.8579 1.57946 12.459 1 11.0003 1C9.54157 1 8.14262 1.57946 7.11117 2.61091C6.07972 3.64236 5.50026 5.04131 5.50026 6.5" stroke="#C1A286" stroke-width="1.5" stroke-linecap="round" stroke-linejoin="round"/>
<rect x="13" y="14" width="10" height="10" rx="5" fill="white"/>
<path d="M18 15.8496C18.101 15.8496 18.1981 15.8905 18.2695 15.9619L18.3164 16.0195C18.3578 16.0816 18.3808 16.1548 18.3809 16.2305V18.6191H20.7695C20.8702 18.6192 20.9668 18.6593 21.0381 18.7305L21.0859 18.7891C21.1273 18.8511 21.1504 18.9243 21.1504 19C21.1504 19.0757 21.1273 19.1489 21.0859 19.2109L21.0381 19.2695C20.9668 19.3407 20.8702 19.3808 20.7695 19.3809H18.3809V21.7695C18.3808 21.8452 18.3578 21.9184 18.3164 21.9805L18.2695 22.0381C18.1981 22.1095 18.101 22.1504 18 22.1504C17.9243 22.1504 17.8511 22.1273 17.7891 22.0859L17.7305 22.0381C17.6593 21.9668 17.6192 21.8702 17.6191 21.7695V19.3809H15.2305C15.1548 19.3808 15.0816 19.3578 15.0195 19.3164L14.9619 19.2695C14.8905 19.1981 14.8496 19.101 14.8496 19C14.8496 18.899 14.8905 18.8019 14.9619 18.7305L15.0195 18.6836C15.0816 18.6422 15.1548 18.6192 15.2305 18.6191H17.6191V16.2305C17.6192 16.1298 17.6593 16.0332 17.7305 15.9619L17.7891 15.9141C17.8511 15.8727 17.9243 15.8496 18 15.8496Z" fill="#C1A286" stroke="#C1A286" stroke-width="0.3"/>
</svg>
