<svg width="25" height="25" viewBox="0 0 25 25" fill="none" xmlns="http://www.w3.org/2000/svg">
  <path d="M1.72758 19.0495C0.64758 18.7961 -0.25242 17.8628 -0.519087 16.7295C-0.679087 16.0428 -0.49242 15.0961 -0.0657532 14.4695C0.0342468 14.3228 2.30091 11.7961 4.97691 8.85344L9.84669 3.49854L9.85972 -1.69679C9.87925 -6.83346 9.87925 -6.89868 10.0159 -7.07446C10.3349 -7.51057 10.8622 -7.66679 11.2854 -7.46512C11.4091 -7.40646 12.7242 -6.38424 14.2086 -5.19357C16.1552 -3.63757 16.9429 -2.96679 17.0211 -2.80412C17.1253 -2.59568 17.1384 -2.30257 17.1384 0.464318V3.49854L21.4547 8.24465C23.8244 10.8553 26.0577 13.3097 26.4092 13.7003C27.1253 14.4948 27.392 14.9636 27.5092 15.6538C27.6981 16.7671 27.1188 17.9975 26.1162 18.5964C25.3869 19.0325 26.1877 19.0065 13.46 19.013C6.9366 19.0195 1.83179 19.0456 1.72758 19.0495ZM25.0346 16.7203C25.3601 16.5706 25.5554 16.1279 25.4512 15.7895C25.3991 15.6137 24.1221 14.1625 20.3587 10.0219C17.5989 6.98124 15.2944 4.42276 15.2293 4.33165C15.1381 4.19498 15.1186 3.8102 15.0926 1.11387L15.06 -1.93936L13.5628 -3.16382C12.7423 -3.8346 12.0457 -4.38793 12.0196 -4.38793C11.9871 -4.38142 11.9675 -2.4869 11.9675 -0.162026C11.961 3.68453 11.9544 4.06931 11.8502 4.25154C11.7916 4.36876 9.49991 6.92753 6.7597 9.94246C4.01949 12.9574 1.7278 15.5161 1.66921 15.6268C1.44787 16.0174 1.57156 16.4796 1.96219 16.714C2.16407 16.8442 2.37898 16.8442 13.4859 16.8442C23.9474 16.8442 24.8261 16.8507 25.0346 16.7203Z" fill="#3C101E"/>
</svg>
