<svg width="75" height="75" viewBox="0 0 75 75" fill="none" xmlns="http://www.w3.org/2000/svg">
<rect width="75" height="75" rx="37.5" fill="#C1A286"/>
<path d="M43.9947 22.5544C46.4172 24.6738 48.053 27.8684 48.343 31.0804C48.5055 33.524 48.2836 36.0092 47.5782 38.3594C47.4979 38.3614 47.4177 38.3634 47.335 38.3655C46.3954 38.3995 45.5455 38.5331 44.8438 39.2188C44.5381 39.5676 44.4239 39.9234 44.3253 40.3732C44.3051 40.4644 44.2849 40.5555 44.2641 40.6494C44.2492 40.7187 44.2342 40.788 44.2188 40.8594C44.1524 40.8601 44.1524 40.8601 44.0847 40.8608C43.6208 40.8658 43.1569 40.8724 42.693 40.8799C42.5202 40.8825 42.3475 40.8847 42.1747 40.8865C41.9253 40.8891 41.6759 40.8932 41.4265 40.8975C41.3502 40.898 41.2739 40.8985 41.1953 40.899C40.424 40.9153 39.7199 41.0669 39.1554 41.6242C38.4233 42.4142 38.3925 43.2576 38.4273 44.2872C38.4661 44.9128 38.7089 45.4102 39.1407 45.8594C39.4126 46.0911 39.7033 46.2865 40.0001 46.4844C40.0356 46.6821 40.0356 46.6821 40.0441 46.9353C40.0493 47.0775 40.0493 47.0775 40.0547 47.2225C40.0571 47.3267 40.0594 47.4309 40.0614 47.5351C40.0626 47.5878 40.0637 47.6405 40.0649 47.6948C40.0707 47.9747 40.0749 48.2547 40.0779 48.5347C40.0806 48.7645 40.0865 48.9939 40.0955 49.2236C40.1755 51.329 40.1755 51.329 39.6559 51.9441C39.4665 52.13 39.2683 52.2971 39.0575 52.4581C38.8083 52.6559 38.5963 52.8879 38.3772 53.1177C38.2913 53.2042 38.2051 53.2905 38.1187 53.3765C37.945 53.5495 37.7717 53.7228 37.5987 53.8965C37.0336 54.4619 36.4553 54.9991 35.8302 55.4981C35.7651 55.5502 35.7001 55.6024 35.633 55.6561C35.3772 55.8511 35.1852 55.8964 34.8597 55.8905C34.5268 55.8303 34.3087 55.6106 34.0626 55.3906C33.968 55.3073 33.968 55.3073 33.8715 55.2222C33.7441 55.1083 33.6172 54.9938 33.4913 54.8783C33.3809 54.778 33.2702 54.6781 33.1564 54.5817C32.6462 54.1478 32.1771 53.6732 31.7046 53.1991C31.558 53.0521 31.411 52.9055 31.264 52.759C30.8 52.2952 30.345 51.8301 29.922 51.3281C29.8404 51.235 29.7586 51.142 29.6766 51.0492C29.1498 50.4482 28.6405 49.8375 28.1545 49.203C28.0821 49.1083 28.0093 49.0139 27.9363 48.9196C27.0063 47.7171 26.1531 46.4544 25.3925 45.1378C25.3133 45.0013 25.2327 44.8656 25.1521 44.7299C24.203 43.1117 23.411 41.3863 22.8126 39.6094C22.7875 39.5351 22.7625 39.4609 22.7367 39.3844C21.3309 35.1461 21.0241 30.4568 23.0617 26.3765C24.7062 23.1855 27.5444 20.824 30.9483 19.7089C35.5561 18.2746 40.3857 19.4349 43.9947 22.5544ZM30.547 27.5781C30.4874 27.6302 30.4279 27.6823 30.3666 27.7359C29.1482 28.8741 28.4489 30.5517 28.3436 32.2019C28.318 33.9777 28.8995 35.6132 30.0782 36.9531C30.1563 37.0424 30.1563 37.0424 30.236 37.1335C31.3742 38.3519 33.0518 39.0512 34.7019 39.1565C36.4778 39.1821 38.1132 38.6006 39.4532 37.4219C39.5127 37.3698 39.5723 37.3178 39.6336 37.2641C40.7487 36.2225 41.5742 34.5772 41.6407 33.0469C41.6447 32.9687 41.6488 32.8906 41.6529 32.8101C41.7009 31.0356 41.0962 29.3817 39.922 28.0469C39.8699 27.9874 39.8178 27.9279 39.7642 27.8665C38.7225 26.7514 37.0773 25.9259 35.547 25.8594C35.4688 25.8554 35.3907 25.8513 35.3101 25.8472C33.5357 25.7992 31.8818 26.4039 30.547 27.5781Z" fill="white"/>
<path d="M41.6406 46.6406C46.6164 46.6406 51.5922 46.6406 56.7187 46.6406C56.7252 47.9136 56.7316 49.1865 56.7382 50.498C56.7411 50.8988 56.7439 51.2996 56.7469 51.7125C56.7483 52.2048 56.7483 52.2048 56.7485 52.4359C56.749 52.5961 56.7501 52.7562 56.7517 52.9163C56.754 53.16 56.7543 53.4036 56.7542 53.6473C56.7553 53.7177 56.7564 53.788 56.7576 53.8605C56.754 54.4108 56.6472 54.9656 56.2695 55.3869C55.8075 55.8107 55.3892 55.8824 54.7802 55.8691C54.7187 55.8684 54.6571 55.8677 54.5936 55.867C54.4426 55.8652 54.2916 55.8624 54.1406 55.8594C54.1401 55.7849 54.1397 55.7104 54.1392 55.6336C54.1347 54.9313 54.129 54.2289 54.1222 53.5266C54.1187 53.1655 54.1156 52.8045 54.1135 52.4434C54.1115 52.0948 54.1083 51.7464 54.1044 51.3978C54.1031 51.2649 54.1022 51.132 54.1017 50.9991C54.101 50.8128 54.0988 50.6266 54.0962 50.4403C54.0964 50.3855 54.0965 50.3306 54.0966 50.2741C54.0901 49.9359 54.0357 49.7217 53.8281 49.4531C53.579 49.2871 53.5178 49.2773 53.2325 49.277C53.1583 49.2766 53.0842 49.2762 53.0078 49.2757C52.886 49.2762 52.886 49.2762 52.7617 49.2767C52.676 49.2764 52.5904 49.2761 52.5022 49.2758C52.2183 49.2751 51.9345 49.2756 51.6507 49.2761C51.4538 49.276 51.257 49.2759 51.0601 49.2757C50.6472 49.2754 50.2343 49.2758 49.8214 49.2765C49.3442 49.2774 48.867 49.2771 48.3898 49.2762C47.9307 49.2754 47.4716 49.2755 47.0124 49.276C46.8171 49.2761 46.6217 49.2759 46.4264 49.2756C46.1535 49.2752 45.8806 49.2758 45.6077 49.2767C45.4862 49.2762 45.4862 49.2762 45.3621 49.2757C45.2506 49.2764 45.2506 49.2764 45.1367 49.277C45.0722 49.2771 45.0077 49.2772 44.9413 49.2772C44.7456 49.2991 44.6204 49.3509 44.4531 49.4531C44.2499 49.7255 44.2729 50.0344 44.2719 50.3605C44.2708 50.4497 44.2708 50.4497 44.2696 50.5407C44.2671 50.7369 44.2658 50.933 44.2645 51.1292C44.263 51.2653 44.2615 51.4015 44.2599 51.5377C44.2559 51.8958 44.2528 52.2538 44.2499 52.6119C44.2468 52.9774 44.2428 53.343 44.2389 53.7085C44.2313 54.4254 44.2247 55.1424 44.2187 55.8594C44.005 55.8627 43.7913 55.8651 43.5775 55.867C43.5173 55.868 43.457 55.8691 43.3949 55.8701C42.8628 55.8737 42.5213 55.7905 42.1304 55.4181C41.6727 54.9201 41.6178 54.4913 41.6229 53.8335C41.6228 53.7545 41.6228 53.6755 41.6228 53.594C41.6229 53.3387 41.6241 53.0834 41.6253 52.8281C41.6256 52.6702 41.6257 52.5124 41.6258 52.3546C41.6266 51.7699 41.6288 51.1852 41.6308 50.6006C41.6341 49.2938 41.6373 47.987 41.6406 46.6406Z" fill="white"/>
<path d="M46.8012 39.9684C46.857 39.9679 46.9128 39.9673 46.9703 39.9668C47.1548 39.9654 47.3394 39.9657 47.5239 39.9661C47.6523 39.9658 47.7806 39.9653 47.909 39.9649C48.1781 39.9642 48.4472 39.9644 48.7163 39.9651C49.0609 39.966 49.4055 39.9645 49.7501 39.9622C50.0152 39.9607 50.2803 39.9608 50.5455 39.9612C50.6725 39.9612 50.7995 39.9608 50.9266 39.9598C51.1044 39.9586 51.2822 39.9595 51.46 39.9608C51.6117 39.9608 51.6117 39.9608 51.7665 39.9608C52.075 40.0064 52.2031 40.0949 52.422 40.3125C52.525 40.5185 52.5095 40.6717 52.509 40.9024C52.509 40.9944 52.509 41.0864 52.5089 41.1812C52.5085 41.2782 52.5081 41.3752 52.5077 41.4752C52.5077 41.5641 52.5076 41.653 52.5075 41.7447C52.5071 42.0778 52.506 42.411 52.505 42.7441C52.5034 43.4886 52.5018 44.233 52.5001 45C50.2829 45 48.0657 45 45.7814 45C45.7741 43.9293 45.7741 43.9293 45.7667 42.8369C45.7646 42.6121 45.7624 42.3872 45.7602 42.1555C45.7596 41.9771 45.759 41.7986 45.7585 41.6202C45.7573 41.5277 45.7561 41.4352 45.7548 41.34C45.7548 41.2512 45.7548 41.1624 45.7548 41.0709C45.754 40.9557 45.754 40.9557 45.7532 40.8381C45.7868 40.5837 45.8672 40.4421 46.0157 40.2344C46.0479 40.1883 46.08 40.1422 46.1131 40.0947C46.3331 39.9426 46.5373 39.9695 46.8012 39.9684Z" fill="white"/>
<path d="M45.7812 50.7812C46.632 50.7812 47.4828 50.7812 48.3594 50.7812C48.3594 52.457 48.3594 54.1328 48.3594 55.8594C47.5086 55.8594 46.6578 55.8594 45.7812 55.8594C45.7812 54.1836 45.7812 52.5078 45.7812 50.7812Z" fill="white"/>
<path d="M50 50.7812C50.825 50.7812 51.65 50.7812 52.5 50.7812C52.5 52.457 52.5 54.1328 52.5 55.8594C51.675 55.8594 50.85 55.8594 50 55.8594C50 54.1836 50 52.5078 50 50.7812Z" fill="white"/>
<path d="M40.8307 42.4912C40.9058 42.4912 40.9808 42.4912 41.0582 42.4913C41.1394 42.4917 41.2206 42.4921 41.3043 42.4925C41.3873 42.4926 41.4703 42.4927 41.5558 42.4928C41.8217 42.4932 42.0876 42.4942 42.3535 42.4952C42.5334 42.4956 42.7134 42.496 42.8933 42.4963C43.3351 42.4971 43.7769 42.4986 44.2187 42.5001C44.2187 43.3251 44.2187 44.1501 44.2187 45.0001C43.6918 45.0073 43.165 45.0135 42.638 45.0173C42.4588 45.0188 42.2796 45.021 42.1004 45.0237C41.8426 45.0275 41.5849 45.0292 41.3272 45.0306C41.2472 45.0322 41.1671 45.0338 41.0847 45.0355C40.5272 45.0357 40.5272 45.0357 40.2246 44.8517C39.9281 44.5196 39.9801 44.1915 39.9755 43.7648C39.9733 43.6942 39.971 43.6237 39.9687 43.551C39.9654 43.2125 39.967 43.0224 40.148 42.7287C40.3873 42.5097 40.5142 42.4904 40.8307 42.4912Z" fill="white"/>
<path d="M54.1406 42.5001C54.6676 42.4911 55.1943 42.4833 55.7213 42.4786C55.9006 42.4767 56.0798 42.474 56.259 42.4706C56.5167 42.4659 56.7744 42.4637 57.0322 42.4619C57.1122 42.4599 57.1922 42.4579 57.2746 42.4558C57.8329 42.4556 57.8329 42.4556 58.1347 42.688C58.3849 43.0341 58.3788 43.3142 58.3838 43.7305C58.3861 43.793 58.3883 43.8554 58.3907 43.9198C58.3952 44.3444 58.3314 44.5862 58.0469 44.922C57.858 45.0164 57.7396 45.0095 57.5286 45.0089C57.4536 45.0089 57.3785 45.0089 57.3012 45.0089C57.22 45.0085 57.1387 45.0081 57.0551 45.0077C56.972 45.0076 56.889 45.0075 56.8035 45.0074C56.5376 45.0069 56.2717 45.006 56.0059 45.005C55.8259 45.0046 55.646 45.0042 55.466 45.0039C55.0242 45.0031 54.5824 45.0016 54.1406 45.0001C54.1406 44.1751 54.1406 43.3501 54.1406 42.5001Z" fill="white"/>
</svg>
