<svg width="75" height="75" viewBox="0 0 75 75" fill="none" xmlns="http://www.w3.org/2000/svg">
<rect width="75" height="75" rx="37.5" fill="#C1A286"/>
<path d="M25.6716 22.522C25.753 22.5216 25.8343 22.5212 25.9181 22.5208C26.1904 22.5197 26.4627 22.5198 26.7351 22.52C26.9304 22.5195 27.1258 22.5189 27.3211 22.5183C27.8517 22.5168 28.3823 22.5164 28.9129 22.5162C29.3001 22.5161 29.6873 22.5156 30.0745 22.5151C31.1161 22.5137 32.1577 22.513 33.1994 22.5132C33.2585 22.5132 33.3176 22.5132 33.3785 22.5132C33.4673 22.5132 33.4673 22.5132 33.5578 22.5132C34.5166 22.5133 35.4753 22.5116 36.4341 22.5092C37.4195 22.5068 38.4049 22.5056 39.3903 22.5058C39.9431 22.5058 40.4959 22.5053 41.0488 22.5035C41.5689 22.5019 42.089 22.5019 42.6091 22.5031C42.7997 22.5033 42.9903 22.5029 43.1809 22.5019C43.4417 22.5005 43.7024 22.5013 43.9633 22.5027C44.0756 22.5013 44.0756 22.5013 44.1902 22.5C44.9168 22.508 45.5678 22.7381 46.1039 23.2501C46.6366 23.8557 46.8394 24.4846 46.8334 25.2952C46.8336 25.4005 46.8336 25.4005 46.8338 25.5079C46.8341 25.7425 46.8332 25.9771 46.8323 26.2116C46.8322 26.3801 46.8323 26.5485 46.8323 26.7169C46.8324 27.1738 46.8314 27.6306 46.8303 28.0874C46.8292 28.565 46.8291 29.0425 46.8289 29.5201C46.8284 30.4243 46.827 31.3284 46.8254 32.2326C46.8235 33.262 46.8226 34.2915 46.8218 35.3209C46.82 37.4384 46.8171 39.5558 46.8134 41.6733C46.8638 41.6595 46.9143 41.6457 46.9662 41.6315C47.183 41.5794 47.3808 41.5773 47.6034 41.577C47.7346 41.5768 47.7346 41.5768 47.8685 41.5767C47.9594 41.577 48.0503 41.5773 48.1439 41.5777C48.2348 41.5773 48.3257 41.577 48.4194 41.5767C48.5069 41.5768 48.5943 41.5769 48.6845 41.577C48.8041 41.5771 48.8041 41.5771 48.9261 41.5773C49.1418 41.5883 49.1418 41.5883 49.4745 41.6733C49.4745 37.6053 49.4745 33.5373 49.4745 29.346C52.6345 29.346 52.6345 29.346 53.1334 29.686C53.2785 29.8395 53.2785 29.8395 53.3959 29.9972C53.4408 30.0568 53.4857 30.1164 53.532 30.1778C53.5788 30.2417 53.6257 30.3056 53.674 30.3715C53.7244 30.439 53.7748 30.5064 53.8267 30.5759C54.2278 31.1153 54.6209 31.6608 55.0122 32.2076C55.4423 32.8081 55.8831 33.3999 56.3274 33.9896C57.4673 35.5084 57.4673 35.5084 57.4699 36.0069C57.4708 36.1235 57.4708 36.1235 57.4717 36.2423C57.472 36.3278 57.4722 36.4133 57.4724 36.5014C57.473 36.5913 57.4735 36.6812 57.4741 36.7738C57.4757 37.0724 57.4767 37.371 57.4775 37.6696C57.4778 37.7715 57.4782 37.8735 57.4785 37.9785C57.4803 38.5186 57.4815 39.0587 57.4822 39.5988C57.4832 40.1559 57.486 40.7129 57.4893 41.27C57.4915 41.6988 57.4922 42.1277 57.4925 42.5565C57.4929 42.7618 57.4939 42.9671 57.4954 43.1723C57.4974 43.4605 57.4973 43.7485 57.4968 44.0366C57.4984 44.1628 57.4984 44.1628 57.5 44.2916C57.4944 45.0602 57.2879 45.7347 56.7677 46.304C56.0569 46.9574 55.3615 47.0545 54.4328 47.0399C54.3399 47.0392 54.2469 47.0384 54.1512 47.0376C53.9228 47.0356 53.6944 47.0328 53.4661 47.0293C53.4676 47.0966 53.4691 47.1639 53.4706 47.2332C53.4892 48.6541 52.9462 49.8968 51.9967 50.9305C51.0399 51.9177 49.7452 52.4836 48.3931 52.4984C46.7405 52.4878 45.3877 52.0575 44.2014 50.8427C43.2125 49.7281 42.8218 48.5087 42.8218 47.0293C40.6264 47.0293 38.431 47.0293 36.1691 47.0293C36.1691 47.366 36.1691 47.7026 36.1691 48.0495C35.9356 49.4004 35.1668 50.6291 34.1096 51.4611C32.6939 52.4184 31.3032 52.6252 29.6353 52.4368C28.3205 52.153 27.0998 51.2701 26.3616 50.1324C25.7635 49.087 25.4894 48.2374 25.5248 47.0293C25.4322 47.0363 25.3396 47.0433 25.2441 47.0506C24.6077 47.0483 24.0336 46.7636 23.5732 46.3239C23.0123 45.6862 22.8374 45.0368 22.8475 44.1952C22.8477 44.1205 22.848 44.0457 22.8482 43.9687C22.8491 43.7313 22.8512 43.494 22.8533 43.2567C22.8542 43.0952 22.8549 42.9337 22.8556 42.7722C22.8574 42.3776 22.8603 41.9829 22.8637 41.5883C22.8109 41.5901 22.7581 41.5918 22.7037 41.5937C22.4625 41.6008 22.2214 41.6052 21.9802 41.6095C21.8971 41.6124 21.814 41.6152 21.7284 41.6182C21.2162 41.6251 20.9248 41.5979 20.5353 41.2482C20.2336 40.9235 20.1769 40.6631 20.1611 40.228C20.1769 39.793 20.2336 39.5325 20.5353 39.2078C20.9727 38.8322 21.3119 38.8195 21.8576 38.8254C21.9392 38.8249 22.0208 38.8245 22.1049 38.824C22.2816 38.8232 22.4583 38.8232 22.635 38.8239C22.9151 38.8249 23.1951 38.824 23.4751 38.8225C23.9691 38.8202 24.463 38.8198 24.9569 38.8199C25.7465 38.8201 26.5361 38.8189 27.3258 38.8152C27.6009 38.8143 27.876 38.8151 28.1512 38.8159C28.321 38.8154 28.4909 38.8148 28.6607 38.8141C28.7366 38.8148 28.8124 38.8154 28.8905 38.8161C29.3789 38.8122 29.8208 38.7468 30.2648 38.5277C30.6467 38.1276 30.7102 37.8417 30.704 37.2986C30.6697 36.9811 30.5552 36.807 30.348 36.5723C29.9563 36.2746 29.5759 36.2218 29.0972 36.2211C29.0148 36.2208 28.9324 36.2204 28.8475 36.2201C28.758 36.2201 28.6685 36.2202 28.5764 36.2202C28.4814 36.2199 28.3864 36.2196 28.2886 36.2193C28.0825 36.2187 27.8765 36.2182 27.6704 36.2179C27.3443 36.2173 27.0183 36.216 26.6922 36.2144C26.5804 36.2139 26.4686 36.2133 26.3567 36.2128C26.2728 36.2124 26.2728 36.2124 26.1871 36.212C25.4284 36.2084 24.6697 36.2056 23.9109 36.2046C23.3438 36.2038 22.7766 36.2012 22.2094 36.1977C21.9933 36.1966 21.7772 36.1962 21.561 36.1964C21.2588 36.1966 20.9567 36.1947 20.6545 36.1923C20.5652 36.1929 20.4759 36.1934 20.3839 36.194C19.8802 36.1876 19.5887 36.1496 19.2048 35.8072C18.903 35.4825 18.8463 35.222 18.8305 34.787C18.8463 34.352 18.903 34.0915 19.2048 33.7668C19.659 33.362 20.0629 33.3789 20.6492 33.3844C20.7438 33.3839 20.8384 33.3834 20.9358 33.383C21.1408 33.3822 21.3459 33.3822 21.5509 33.3828C21.8756 33.3839 22.2004 33.383 22.5251 33.3815C23.1564 33.3789 23.7876 33.3787 24.4188 33.3789C25.2759 33.379 26.1331 33.3776 26.9902 33.3741C27.3096 33.3733 27.6289 33.374 27.9483 33.3749C28.1451 33.3743 28.3418 33.3738 28.5386 33.3731C28.6269 33.3737 28.7152 33.3744 28.8061 33.3751C29.3236 33.3715 29.7952 33.3251 30.2648 33.0867C30.6467 32.6866 30.7102 32.4007 30.704 31.8576C30.6697 31.5401 30.5552 31.366 30.348 31.1313C29.9395 30.8208 29.5448 30.7807 29.0467 30.7801C28.9063 30.7796 28.9063 30.7796 28.7631 30.7791C28.6102 30.7791 28.6102 30.7791 28.4542 30.7792C28.2885 30.7787 28.1228 30.7783 27.9571 30.7778C27.7794 30.7774 27.6017 30.7771 27.424 30.7769C27.0532 30.7764 26.6824 30.775 26.3116 30.7734C26.1845 30.7729 26.0574 30.7723 25.9304 30.7718C25.8667 30.7715 25.8031 30.7712 25.7375 30.771C24.8746 30.7674 24.0118 30.7646 23.1489 30.7635C22.5663 30.7628 21.9837 30.7609 21.4011 30.7576C21.093 30.756 20.785 30.7549 20.4769 30.7553C20.1333 30.7558 19.7897 30.7537 19.4461 30.7513C19.3444 30.7519 19.2426 30.7524 19.1378 30.753C18.6091 30.747 18.273 30.7357 17.8742 30.3662C17.5725 30.0415 17.5158 29.781 17.5 29.346C17.5158 28.9109 17.5725 28.6505 17.8742 28.3258C18.3464 27.8885 18.8268 27.9383 19.4408 27.9434C19.5484 27.9429 19.656 27.9424 19.7668 27.9419C20.0001 27.9409 20.2334 27.941 20.4667 27.9418C20.8362 27.9431 21.2057 27.942 21.5751 27.9404C22.2932 27.9378 23.0112 27.9377 23.7293 27.9379C24.6423 27.938 25.5553 27.9371 26.4684 27.9337C26.8351 27.9325 27.2018 27.9325 27.5685 27.9335C27.7421 27.9338 27.9156 27.9336 28.0892 27.933C28.3 27.9324 28.5108 27.9327 28.7217 27.9341C29.2664 27.9307 29.7716 27.9034 30.2648 27.6457C30.6467 27.2455 30.7102 26.9596 30.704 26.4166C30.6697 26.0991 30.5552 25.925 30.348 25.6903C29.8871 25.3399 29.4154 25.3373 28.8585 25.3328C28.7936 25.3319 28.7286 25.3311 28.6617 25.3302C28.448 25.3275 28.2343 25.3254 28.0205 25.3233C27.872 25.3216 27.7234 25.3198 27.5749 25.318C27.1845 25.3133 26.7942 25.3091 26.4039 25.305C26.0054 25.3007 25.6068 25.296 25.2082 25.2913C24.4267 25.2821 23.6452 25.2735 22.8637 25.2652C22.8554 24.478 23.0131 23.8617 23.5537 23.27C24.1895 22.6856 24.8348 22.519 25.6716 22.522ZM28.82 45.2652C28.2824 45.9819 28.1723 46.7372 28.269 47.6244C28.4265 48.3161 28.7997 48.8881 29.3761 49.2882C30.0923 49.7097 30.8551 49.8034 31.6698 49.6067C32.4917 49.2956 32.9588 48.7605 33.3417 47.9645C33.5705 47.2784 33.5013 46.4225 33.2011 45.7747C32.7649 45.0106 32.1496 44.5714 31.3108 44.3377C30.3719 44.1896 29.465 44.5644 28.82 45.2652ZM46.1169 45.2652C45.5793 45.9819 45.4693 46.7372 45.566 47.6244C45.7235 48.3161 46.0967 48.8881 46.6731 49.2882C47.3893 49.7097 48.152 49.8034 48.9667 49.6067C49.7886 49.2956 50.2558 48.7605 50.6387 47.9645C50.8675 47.2784 50.7983 46.4225 50.498 45.7747C50.0619 45.0106 49.4466 44.5714 48.6078 44.3377C47.6689 44.1896 46.762 44.5644 46.1169 45.2652Z" fill="white"/>
</svg>
