<svg width="75" height="75" viewBox="0 0 75 75" fill="none" xmlns="http://www.w3.org/2000/svg">
<rect width="75" height="75" rx="37.5" fill="#C1A286"/>
<g clip-path="url(#clip0_561_308)">
<path d="M24.0561 17.4687C24.1319 17.4681 24.2077 17.4676 24.2858 17.467C24.5387 17.4656 24.7915 17.4658 25.0443 17.4659C25.2261 17.4652 25.4078 17.4644 25.5896 17.4636C26.0826 17.4615 26.5755 17.4609 27.0685 17.4608C27.3767 17.4606 27.685 17.4601 27.9932 17.4595C29.0137 17.4574 30.0342 17.4564 31.0547 17.4565C31.1096 17.4565 31.1646 17.4566 31.2212 17.4566C31.3037 17.4566 31.3037 17.4566 31.3878 17.4566C32.2789 17.4567 33.1698 17.4544 34.0608 17.4511C34.9772 17.4478 35.8936 17.4462 36.81 17.4464C37.3239 17.4464 37.8378 17.4458 38.3516 17.4433C38.8352 17.441 39.3186 17.441 39.8021 17.4427C39.9791 17.4429 40.1561 17.4424 40.3331 17.441C42.1674 17.4272 42.1674 17.4272 42.9777 18.1073C43.555 18.6928 43.7071 19.431 43.7109 20.2294C43.7092 20.3727 43.7092 20.3727 43.7075 20.5188C43.7075 20.6218 43.7076 20.7248 43.7076 20.831C43.7077 21.1106 43.7059 21.3903 43.7037 21.67C43.7017 21.9633 43.7016 22.2566 43.7012 22.5499C43.7002 23.1041 43.6977 23.6582 43.6945 24.2124C43.691 24.8438 43.6893 25.4753 43.6878 26.1067C43.6845 27.4045 43.679 28.7022 43.672 30C43.6255 30.0174 43.579 30.0348 43.5311 30.0527C43.3172 30.1329 43.1036 30.2135 42.8899 30.2942C42.8167 30.3215 42.7436 30.3489 42.6682 30.3771C40.2267 31.3006 38.2754 33.0887 37.1876 35.4687C36.818 36.3079 36.6179 37.1482 36.4064 38.0469C31.4564 38.0469 26.5064 38.0469 21.4064 38.0469C21.4001 33.4939 21.4001 33.4939 21.3988 31.5866C21.3985 31.1508 21.3981 30.715 21.3978 30.2792C21.3978 30.2246 21.3977 30.17 21.3977 30.1137C21.397 29.2328 21.3958 28.3519 21.3943 27.471C21.3929 26.5665 21.392 25.6619 21.3917 24.7574C21.3915 24.2495 21.391 23.7417 21.3899 23.2338C21.3888 22.7556 21.3885 22.2774 21.3887 21.7991C21.3887 21.6238 21.3884 21.4486 21.3878 21.2733C21.387 21.0334 21.3872 20.7935 21.3876 20.5536C21.3872 20.4847 21.3867 20.4159 21.3862 20.3449C21.3902 19.5027 21.5234 18.8146 22.1132 18.19C22.7108 17.6243 23.2513 17.4645 24.0561 17.4687ZM25.1564 21.1719C25.1564 25.9156 25.1564 30.6594 25.1564 35.5469C25.9041 35.5469 26.6517 35.5469 27.422 35.5469C27.422 30.8031 27.422 26.0594 27.422 21.1719C26.6744 21.1719 25.9267 21.1719 25.1564 21.1719Z" fill="white"/>
<path d="M21.4062 40.3125C26.3305 40.3125 31.2547 40.3125 36.3281 40.3125C36.4828 41.1246 36.4828 41.1246 36.6406 41.9531C37.4128 44.4276 38.8101 46.4156 41.0156 47.8125C40.8563 49.7247 40.5144 51.6174 40.2344 53.5156C35.2328 53.5156 30.2312 53.5156 25.0781 53.5156C25.0781 54.8305 25.0781 56.1453 25.0781 57.5C24.2789 57.5 23.4797 57.5 22.6562 57.5C22.6562 56.1852 22.6562 54.8703 22.6562 53.5156C22.2437 53.5156 21.8313 53.5156 21.4062 53.5156C21.4062 49.1586 21.4062 44.8016 21.4062 40.3125ZM25.1562 42.8906C25.1562 45.1594 25.1562 47.4281 25.1562 49.7656C25.9039 49.7656 26.6516 49.7656 27.4219 49.7656C27.4219 47.4969 27.4219 45.2281 27.4219 42.8906C26.6742 42.8906 25.9266 42.8906 25.1562 42.8906Z" fill="white"/>
<path d="M43.5936 32.4219C43.5936 34.5617 43.5936 36.7016 43.5936 38.9062C45.2178 38.9062 46.8421 38.9062 48.5155 38.9062C48.5155 36.7664 48.5155 34.6266 48.5155 32.4219C48.8839 32.4955 49.1754 32.6121 49.5067 32.7783C49.5621 32.8061 49.6175 32.8339 49.6746 32.8625C50.1448 33.1059 50.5414 33.3985 50.9374 33.75C51.0159 33.8119 51.0159 33.8119 51.0961 33.8751C52.5532 35.0489 53.3555 36.934 53.5643 38.7549C53.6888 40.2171 53.4071 41.6625 52.7343 42.9688C52.6959 43.0442 52.6575 43.1196 52.618 43.1973C52.2706 43.8365 51.8314 44.3276 51.328 44.8438C51.2824 44.8951 51.2368 44.9465 51.1898 44.9994C50.5213 45.7338 49.5684 46.1762 48.6718 46.5625C48.7926 47.5399 48.927 48.5146 49.0765 49.488C49.1028 49.6597 49.129 49.8314 49.1551 50.0031C49.1728 50.1195 49.1905 50.2359 49.2083 50.3523C49.2171 50.4103 49.2259 50.4683 49.235 50.5281C49.2802 50.8249 49.3259 51.1217 49.3724 51.4183C49.4182 51.7115 49.4629 52.0049 49.5069 52.2984C49.5235 52.4081 49.5406 52.5177 49.5581 52.6273C49.7488 53.8223 49.753 54.9557 49.0758 56.0019C48.489 56.7746 47.7407 57.2746 46.7968 57.5C45.6404 57.6197 44.6475 57.4691 43.7139 56.7386C42.9772 56.0846 42.5501 55.2771 42.4218 54.2969C42.4286 53.3781 42.572 52.4716 42.7126 51.5659C42.7335 51.4281 42.7544 51.2903 42.7753 51.1525C42.8297 50.7941 42.8847 50.4358 42.9398 50.0774C43.0285 49.5006 43.1163 48.9236 43.204 48.3466C43.2346 48.1458 43.2655 47.945 43.2964 47.7443C43.3152 47.622 43.3339 47.4997 43.3526 47.3774C43.3612 47.3217 43.3698 47.2661 43.3787 47.2088C43.412 46.9904 43.4374 46.7838 43.4374 46.5625C43.3099 46.5071 43.3099 46.5071 43.1798 46.4505C42.4328 46.1175 41.8044 45.7582 41.1718 45.2344C41.1227 45.198 41.0737 45.1617 41.0231 45.1242C39.6028 44.0314 38.8157 42.1361 38.5625 40.4132C38.5409 40.2232 38.5259 40.0346 38.5155 39.8438C38.5123 39.7908 38.5091 39.7378 38.5057 39.6832C38.4504 37.8511 39.0933 35.9775 40.3124 34.6094C40.3594 34.5513 40.4064 34.4932 40.4549 34.4333C41.2091 33.5242 42.1469 32.9879 43.203 32.5C43.3593 32.4219 43.3593 32.4219 43.5936 32.4219Z" fill="white"/>
</g>
<defs>
<clipPath id="clip0_561_308">
<rect width="40" height="40" fill="white" transform="translate(17.5 17.5)"/>
</clipPath>
</defs>
</svg>
