<svg width="25" height="26" viewBox="0 0 25 26" fill="none" xmlns="http://www.w3.org/2000/svg">
<path d="M3.64705 3.67865C2.85603 3.8642 2.19685 4.54779 2.00154 5.37787C1.88435 5.8808 2.02107 6.57416 2.33357 7.03315C2.40681 7.14057 4.10603 9.0351 6.11287 11.2421L9.76521 15.2558L9.77498 19.1523C9.78963 23.0048 9.78963 23.0537 9.89217 23.1855C10.1314 23.5126 10.5269 23.6298 10.8443 23.4785C10.9371 23.4345 11.9234 22.6679 13.0367 21.7744C14.4967 20.6074 15.0875 20.1044 15.1461 19.9824C15.2242 19.8261 15.234 19.6064 15.234 17.5312V15.2558L18.4713 11.6962C20.2486 9.73822 21.9234 7.8974 22.1871 7.60444C22.7242 7.00873 22.9244 6.65717 23.0123 6.13959C23.1539 5.30463 22.7193 4.38178 21.9674 3.93256C21.4205 3.60541 22.0211 3.62494 12.4752 3.62983C7.5826 3.63471 3.75447 3.65424 3.64705 3.67865ZM21.1275 5.27045C21.3717 5.38276 21.5181 5.71479 21.44 5.96869C21.401 6.10053 20.4439 7.1894 17.6217 10.2949C15.5513 12.5751 13.8228 14.4941 13.774 14.5624C13.7056 14.665 13.691 14.9531 13.6715 16.9746L13.647 19.2646L12.524 20.1826C11.9088 20.6855 11.3863 21.1005 11.3668 21.1005C11.3424 21.1054 11.3277 19.6845 11.3277 17.9414C11.3228 15.0556 11.3179 14.7675 11.2398 14.6308C11.1959 14.5429 9.47713 12.624 7.42146 10.3632C5.3658 8.10248 3.64705 6.18354 3.6031 6.10053C3.43709 5.80756 3.52986 5.46088 3.82283 5.2851C3.9742 5.18744 4.13533 5.18744 12.4654 5.18744C20.3121 5.18744 20.9713 5.19233 21.1275 5.27045Z" fill="#323433"/>
</svg>
