<svg width="135" height="40" viewBox="0 0 135 40" fill="none" xmlns="http://www.w3.org/2000/svg">
<path d="M60.288 22.408H49.248L46.432 29H44.96L54.432 6.6H56.032L66.464 29H63.36L60.288 22.408ZM59.616 20.968L54.592 10.184H54.464L49.856 20.968H59.616ZM71.2775 29V6.6H74.1895V27.24H85.7415V29H71.2775ZM90.8475 29V6.6H98.2075C99.9782 6.6 101.6 6.888 103.072 7.464C104.544 8.01867 105.802 8.79733 106.848 9.8C107.914 10.7813 108.736 11.9547 109.312 13.32C109.909 14.6853 110.208 16.1573 110.208 17.736C110.208 19.3787 109.898 20.8933 109.28 22.28C108.682 23.6453 107.85 24.8293 106.784 25.832C105.738 26.8347 104.512 27.6133 103.104 28.168C101.696 28.7227 100.192 29 98.5915 29H90.8475ZM93.7595 27.592H97.2795C99.0288 27.592 100.512 27.304 101.728 26.728C102.965 26.1307 103.978 25.3627 104.767 24.424C105.557 23.4853 106.133 22.44 106.496 21.288C106.858 20.1147 107.04 18.952 107.04 17.8C107.04 16.52 106.826 15.2933 106.4 14.12C105.973 12.9253 105.344 11.88 104.512 10.984C103.701 10.0667 102.688 9.34133 101.472 8.808C100.256 8.27467 98.8582 8.008 97.2795 8.008H93.7595V27.592ZM127.444 22.408H116.404L113.588 29H112.116L121.588 6.6H123.188L133.62 29H130.516L127.444 22.408ZM126.772 20.968L121.748 10.184H121.62L117.012 20.968H126.772Z" fill="white"/>
<g clip-path="url(#clip0_2513_333)">
<path d="M17.3501 0.0976028C12.084 0.778688 7.80084 3.16773 4.25218 7.40095C3.18655 8.6793 2.84514 9.20321 2.16231 10.5235C1.83124 11.1522 1.51051 11.7913 1.42775 11.938C1.21048 12.3677 0.372463 14.9767 0.258658 15.6054C-0.0310284 17.1981 -0.186217 19.3567 -0.124142 20.7922C-0.0517202 22.3115 0.17589 24.47 0.269003 24.5643C0.331079 24.6272 4.5936 24.4491 4.65568 24.3757C4.68671 24.3443 4.66602 23.9566 4.60395 23.506C4.55222 23.045 4.53152 22.542 4.56256 22.3849C4.60395 22.1858 4.56256 22.0286 4.42807 21.8819C4.27288 21.7038 4.26253 21.6304 4.36599 21.4733C4.49014 21.2637 4.54187 20.4045 4.42807 20.2892C4.35564 20.2159 2.75203 21.4313 2.05885 22.102C1.3036 22.825 0.869067 23.1079 0.765608 22.9402C0.600073 22.6678 0.537997 20.2263 0.662149 18.8223C0.858721 16.5275 1.1691 14.6624 1.44844 13.9813C1.59328 13.6355 1.77951 13.0907 1.87262 12.7763C2.15196 11.7285 3.5797 9.308 4.81086 7.78865C5.81442 6.54173 7.58357 4.92808 8.70093 4.23652C10.2942 3.25156 11.2771 2.69621 11.8875 2.43426C14.743 1.19782 16.5949 0.799646 19.4917 0.799646C21.1781 0.799646 21.5609 0.831081 22.7093 1.07208C24.6337 1.49121 25.8959 1.92082 27.4477 2.67525C31.3999 4.62421 34.2967 7.54765 36.3349 11.6866C37.4729 13.9813 38.2282 17.3763 38.2179 20.1111C38.2075 21.358 38.073 23.2231 37.9902 23.3174C37.8454 23.4537 37.1729 22.9507 36.2004 22.0077C35.0727 20.897 34.4106 20.3311 33.6139 19.7967C33.3346 19.6081 32.331 18.6651 31.3895 17.7011C29.4755 15.7417 29.1341 15.5216 28.1927 15.6369C27.3339 15.7417 26.8994 16.056 24.9854 18.005C22.6059 20.4359 21.9851 20.8027 20.9919 20.3835C20.4539 20.153 18.5709 18.1936 16.6776 15.8674C14.2567 12.902 13.8222 12.5248 12.7669 12.5248C11.7944 12.5248 11.0391 13.0383 10.0252 14.4004C9.31134 15.3644 6.46621 18.246 5.61785 18.8642L4.98675 19.3252L5.05917 19.7967C5.10055 20.0587 5.12124 20.5302 5.1109 20.855C5.10055 21.2637 5.15228 21.4733 5.26609 21.578C5.46266 21.7457 5.473 21.9343 5.27643 21.861C5.01778 21.7562 4.87294 22.06 4.98675 22.4163C5.05917 22.6049 5.05917 22.7516 4.99709 22.783C4.94536 22.825 4.90398 23.2231 4.90398 23.6842V24.5329L6.27999 24.5015C7.06628 24.4805 7.67669 24.4177 7.71807 24.3548C7.75945 24.3024 7.80084 23.9357 7.80084 23.5375C7.80084 22.8669 7.79049 22.8354 7.56288 22.8354C7.19043 22.8354 7.15939 22.7307 7.44908 22.3849C7.78014 21.9762 7.75945 21.4523 7.40769 21.3685L7.16974 21.3161L7.43873 20.9074C7.78014 20.4045 7.74911 20.0692 7.36631 20.0273C7.01455 19.9853 7.01455 19.9539 7.34562 19.4719C7.49046 19.2519 7.66634 18.8537 7.73876 18.5708C7.81118 18.2983 7.9043 18.0783 7.95603 18.0888C8.00776 18.0993 8.10087 18.3717 8.16294 18.6965C8.23537 19.0737 8.38021 19.3776 8.55609 19.5662C8.88716 19.9225 8.9182 20.0587 8.61817 19.9015C8.34917 19.7548 8.11121 19.8387 8.11121 20.0797C8.11121 20.1844 8.27675 20.5197 8.48367 20.8236C8.88716 21.3999 8.8975 21.5676 8.52505 21.3685C7.95603 21.0646 7.83187 21.62 8.31813 22.2906C8.69059 22.8145 8.71128 22.9612 8.39055 22.8878C8.16294 22.825 8.1526 22.8354 8.16294 23.6842V24.5329L9.35273 24.5224C10.0045 24.512 10.5632 24.47 10.5942 24.4281C10.6253 24.3862 10.6356 24.0404 10.6149 23.6527C10.5839 23.024 10.5529 22.9507 10.3252 22.8983C10.0666 22.825 9.97348 22.5211 10.2114 22.5211C10.2839 22.5211 10.4184 22.3849 10.5218 22.2172C10.7184 21.8819 10.7701 21.2113 10.5942 21.3161C10.5322 21.358 10.5011 21.4628 10.5115 21.5571C10.5322 21.6723 10.4597 21.7457 10.3046 21.7667C10.0873 21.7981 10.0666 21.7771 10.1287 21.5571C10.1701 21.4209 10.2839 21.2218 10.3873 21.1065C10.4908 20.9913 10.6356 20.6874 10.6977 20.4359L10.8218 19.9644L11.0805 20.6245C11.2667 21.096 11.3081 21.3056 11.2253 21.4104C11.1426 21.5047 11.1529 21.599 11.2667 21.7457C11.4633 22.0181 11.4633 22.0705 11.215 22.1334C11.0081 22.1858 11.0081 22.1963 11.1736 22.6259C11.3185 22.9821 11.3288 23.0869 11.215 23.1498C11.0701 23.2441 10.8839 24.3024 10.9977 24.4281C11.0391 24.4805 23.1025 24.6377 25.3889 24.6167C25.5338 24.6167 28.5134 24.6063 32.0103 24.5853L38.3627 24.5643L38.5489 23.7785C38.9938 21.8086 39.0973 19.1366 38.7972 17.2296C38.4662 15.071 37.6799 12.5248 36.8108 10.7854C36.428 10.01 35.3106 8.27065 34.6692 7.43239C33.9243 6.47886 32.5173 5.01191 31.5965 4.25747C29.2686 2.33995 25.9166 0.831081 22.6472 0.254776C21.5402 0.0556889 18.4054 -0.0386162 17.3501 0.0976028Z" fill="white"/>
<path d="M22.6989 7.73642C21.8609 7.99838 20.8883 8.80521 20.5159 9.55964C20.0296 10.5132 20.0607 11.8439 20.5883 12.9022C20.9194 13.5519 21.8091 14.4635 22.4506 14.7778C22.8541 14.9769 23.1127 15.0293 23.7335 15.0293C25.1198 15.0188 25.9578 14.4425 26.7855 12.9441C27.2821 12.0325 27.3752 11.6239 27.2407 10.8485C26.9821 9.36056 26.0096 8.19747 24.706 7.79929C24.168 7.63164 23.1334 7.61069 22.6989 7.73642Z" fill="white"/>
<path d="M4.55223 17.146C4.5005 17.4289 4.45911 18.1939 4.47981 18.5501C4.49015 18.6654 4.58327 18.7178 4.75915 18.7178H5.03849L4.97641 17.9738C4.91434 17.1879 4.83157 16.8631 4.69707 16.8631C4.64534 16.8631 4.58327 16.9889 4.55223 17.146Z" fill="white"/>
<path d="M0.589785 25.6333C0.558748 25.7067 0.569094 25.8848 0.600131 26.0315L0.662207 26.2934L9.93216 26.2306C19.0262 26.1677 22.5645 26.2201 22.2748 26.4087C22.1921 26.4611 21.6024 26.6707 20.9609 26.8802C19.6263 27.3098 17.6192 28.3157 16.1811 29.2797C14.7534 30.2228 14.7016 30.2437 13.6981 29.9713C12.0738 29.5207 11.2151 29.4264 7.90436 29.3217C6.11451 29.2693 4.06602 29.1854 3.35215 29.1331C2.63828 29.0911 2.01752 29.0911 1.97614 29.1331C1.85199 29.2274 2.06925 29.6151 2.30721 29.7513C2.42101 29.8037 4.06602 29.877 6.25935 29.9084C10.2632 29.9713 13.4808 30.1285 13.8429 30.2752L14.0602 30.3695H13.8326C13.6567 30.38 13.6153 30.4219 13.667 30.5581C13.7084 30.6629 13.8015 30.8096 13.8636 30.8829C14.0705 31.082 14.8568 30.7572 16.4915 29.8037C18.54 28.5987 19.109 28.3053 20.3712 27.729C22.5128 26.7545 22.4611 26.765 27.0443 26.5554C27.8616 26.5135 28.5859 26.4611 28.6376 26.4297C28.6893 26.3877 30.8206 26.3354 33.3657 26.3039C35.9108 26.2725 38.0213 26.2096 38.0627 26.1782C38.0938 26.1363 38.1351 25.9791 38.1455 25.8114L38.1662 25.5076L35.4245 25.539C33.914 25.5495 31.3586 25.6228 29.7343 25.6962C25.958 25.8534 23.5577 25.8534 22.6473 25.6857C21.5403 25.4866 0.662207 25.4342 0.589785 25.6333Z" fill="white"/>
<path d="M1.138 27.2157C1.10696 27.2576 1.14834 27.4148 1.21042 27.5615L1.34491 27.813L6.50753 27.7816C11.7115 27.7501 13.4496 27.6663 14.1014 27.4358C14.4118 27.3205 14.4325 27.2996 14.2566 27.2262C13.9876 27.1214 1.21042 27.1109 1.138 27.2157Z" fill="white"/>
<path d="M29.0616 27.3936C27.6442 27.5298 25.8027 27.7604 24.4577 27.9804C22.6368 28.2633 20.6401 28.9549 19.6572 29.636C18.1674 30.6628 14.8981 32.4756 14.5256 32.4756C14.3601 32.4756 13.6669 32.8947 13.5738 33.0519C13.4496 33.251 12.3116 33.733 11.6598 33.8482C10.9045 33.9949 9.06296 33.9006 7.18 33.6177C5.51431 33.3767 5.1522 33.2824 4.88321 33.0309C4.67629 32.8423 4.67629 32.8423 4.84182 33.251C5.06943 33.7958 5.07978 33.8168 6.40406 34.9694C8.15252 36.4992 9.53887 37.3794 11.6081 38.291C13.6152 39.1712 15.1153 39.6427 16.3982 39.7999C17.6604 39.9675 20.9194 39.9466 22.0781 39.758C25.1612 39.2969 28.6995 37.9033 30.717 36.384C31.8343 35.5352 33.7173 33.8587 33.7173 33.7015C33.7173 33.6177 33.5207 33.5758 33.2 33.5653C32.9207 33.5653 32.2171 33.492 31.6481 33.4186C30.4894 33.2615 26.3717 33.3348 25.3992 33.5234C24.3956 33.712 22.792 34.5084 21.0642 35.661C18.6536 37.2537 17.557 37.7776 15.7257 38.1862C14.4325 38.4796 12.7151 38.2701 13.6152 37.9243C13.8014 37.8614 14.1221 37.7357 14.3187 37.6519C14.5153 37.568 15.2602 37.3375 15.974 37.1384C17.5466 36.6878 18.4984 36.2163 20.2676 35.0323C21.7471 34.0473 23.299 33.251 24.5198 32.8423C24.9646 32.6956 26.2993 32.4337 27.6029 32.2451L29.8893 31.9098L32.2378 32.1508C34.7829 32.4022 34.8243 32.4022 35.1554 31.8364C35.2485 31.6792 35.3209 31.5325 35.3209 31.5116C35.3209 31.4382 31.4722 31.2706 29.9928 31.2811C28.6064 31.2915 25.6164 31.6373 24.7474 31.8993C23.9818 32.1298 21.6333 33.3662 20.1434 34.3302C18.3433 35.4933 17.2155 36.0068 15.0946 36.6669C13.191 37.2642 12.2392 37.4004 11.3494 37.2118C10.6769 37.0651 9.77683 36.7088 9.48714 36.4783C9.25953 36.3106 9.32161 36.3002 11.0908 36.2897C14.2463 36.2582 14.9705 35.9648 21.0229 32.2032C22.6782 31.1763 24.7681 30.359 26.2165 30.1808C28.0684 29.9398 29.9307 29.8665 31.3584 29.9608C32.1447 30.0132 33.5725 30.0656 34.5346 30.0865L36.2934 30.118L36.5314 29.7617C36.6659 29.5626 36.7693 29.374 36.7693 29.3321C36.7693 29.2483 32.7448 29.1645 30.3549 29.2064C28.4823 29.2273 26.6407 29.4159 24.975 29.7512C23.061 30.1389 22.3264 30.4533 20.578 31.6373C19.5848 32.3079 16.6465 33.9845 15.0429 34.8018C14.0497 35.3047 12.084 35.7238 10.7493 35.7343C8.825 35.7343 7.25242 35.2942 6.60063 34.5608L6.40406 34.3407L7.64557 34.4245C8.3284 34.4769 9.61129 34.5188 10.4907 34.5188L12.0943 34.5084L13.4289 33.953C14.9808 33.3138 15.1774 33.1986 18.1467 31.3963C21.1367 29.5626 21.1263 29.5731 21.9643 29.2797C22.8541 28.9549 25.4406 28.4415 26.5786 28.3367C27.0338 28.3052 27.9443 28.2005 28.5961 28.1166C29.4858 27.9909 30.717 27.9595 33.4897 27.9699C37.4211 27.9804 37.4936 27.9699 37.4936 27.4879V27.2365L34.007 27.2469C32.0516 27.2574 29.8686 27.3203 29.0616 27.3936Z" fill="white"/>
<path d="M3.2797 31.4908C3.36247 31.6584 3.70388 32.0252 4.03495 32.3081C4.5626 32.7796 4.62467 32.8005 4.5626 32.5595C4.50052 32.3185 4.53156 32.2871 4.85228 32.2347C5.26612 32.1614 7.40772 32.3081 9.33207 32.5281C10.4701 32.6643 10.9874 32.6748 12.2807 32.57C13.1497 32.5072 13.8739 32.4443 13.8946 32.4128C14.0188 32.2871 13.1808 32.1614 11.5151 32.0671C10.4701 32.0147 9.05273 31.868 8.3699 31.7422C7.68707 31.627 6.43521 31.4803 5.5765 31.4279C4.72813 31.3755 3.81769 31.3022 3.57973 31.2602L3.12451 31.1869L3.2797 31.4908Z" fill="white"/>
</g>
<defs>
<clipPath id="clip0_2513_333">
<rect width="39" height="40" fill="white"/>
</clipPath>
</defs>
</svg>
