<svg width="19" height="20" viewBox="0 0 19 20" fill="none" xmlns="http://www.w3.org/2000/svg">
<path d="M10.313 2.08331C11.2036 2.08569 11.6556 2.09044 12.0459 2.10152L12.1995 2.10706C12.3769 2.1134 12.5518 2.12131 12.7632 2.13081C13.6055 2.1704 14.1803 2.3034 14.6846 2.49894C15.2071 2.70002 15.6472 2.97235 16.0874 3.41173C16.4901 3.80735 16.8016 4.2861 17.0002 4.81456C17.1957 5.31885 17.3287 5.8936 17.3683 6.73673C17.3778 6.94731 17.3857 7.12227 17.3921 7.3004L17.3968 7.45398C17.4087 7.84348 17.4134 8.29552 17.415 9.18615L17.4158 9.77673V10.8138C17.4177 11.3913 17.4117 11.9687 17.3976 12.546L17.3929 12.6996C17.3865 12.8777 17.3786 13.0526 17.3691 13.2632C17.3295 14.1064 17.1949 14.6803 17.0002 15.1854C16.8016 15.7139 16.4901 16.1926 16.0874 16.5882C15.6918 16.9909 15.213 17.3025 14.6846 17.501C14.1803 17.6966 13.6055 17.8296 12.7632 17.8691L12.1995 17.8929L12.0459 17.8976C11.6556 17.9087 11.2036 17.9143 10.313 17.9159L9.7224 17.9166H8.68611C8.1084 17.9187 7.53069 17.9126 6.95315 17.8984L6.79956 17.8937C6.61163 17.8866 6.42374 17.8784 6.2359 17.8691C5.39356 17.8296 4.81881 17.6966 4.31373 17.501C3.78556 17.3024 3.30708 16.9909 2.91169 16.5882C2.50869 16.1927 2.1969 15.7139 1.99811 15.1854C1.80256 14.6811 1.66956 14.1064 1.62998 13.2632L1.60623 12.6996L1.60227 12.546C1.58768 11.9687 1.58108 11.3913 1.58248 10.8138V9.18615C1.58029 8.60871 1.5861 8.03126 1.5999 7.45398L1.60544 7.3004C1.61177 7.12227 1.61969 6.94731 1.62919 6.73673C1.66877 5.8936 1.80177 5.31965 1.99731 4.81456C2.19657 4.28589 2.50891 3.80712 2.91248 3.41173C3.30764 3.00921 3.78584 2.6977 4.31373 2.49894C4.81881 2.3034 5.39277 2.1704 6.2359 2.13081C6.44648 2.12131 6.62223 2.1134 6.79956 2.10706L6.95315 2.10231C7.53043 2.08825 8.10787 2.08218 8.68531 2.0841L10.313 2.08331ZM9.49915 6.04165C8.44933 6.04165 7.44252 6.45868 6.70018 7.20102C5.95785 7.94335 5.54081 8.95016 5.54081 9.99998C5.54081 11.0498 5.95785 12.0566 6.70018 12.7989C7.44252 13.5413 8.44933 13.9583 9.49915 13.9583C10.549 13.9583 11.5558 13.5413 12.2981 12.7989C13.0404 12.0566 13.4575 11.0498 13.4575 9.99998C13.4575 8.95016 13.0404 7.94335 12.2981 7.20102C11.5558 6.45868 10.549 6.04165 9.49915 6.04165ZM9.49915 7.62498C9.81104 7.62493 10.1199 7.68631 10.4081 7.80561C10.6962 7.92492 10.9581 8.09982 11.1786 8.32032C11.3992 8.54082 11.5742 8.80261 11.6936 9.09074C11.813 9.37887 11.8745 9.68769 11.8745 9.99958C11.8746 10.3115 11.8132 10.6203 11.6939 10.9085C11.5746 11.1967 11.3997 11.4585 11.1792 11.6791C10.9587 11.8997 10.6969 12.0746 10.4088 12.194C10.1207 12.3134 9.81183 12.3749 9.49994 12.375C8.87005 12.375 8.26596 12.1248 7.82056 11.6794C7.37516 11.234 7.12494 10.6299 7.12494 9.99998C7.12494 9.37009 7.37516 8.766 7.82056 8.3206C8.26596 7.8752 8.87005 7.62498 9.49994 7.62498M13.6562 4.85415C13.3937 4.85415 13.142 4.95841 12.9564 5.14399C12.7709 5.32957 12.6666 5.58128 12.6666 5.84373C12.6666 6.10618 12.7709 6.35789 12.9564 6.54347C13.142 6.72905 13.3937 6.83331 13.6562 6.83331C13.9186 6.83331 14.1703 6.72905 14.3559 6.54347C14.5415 6.35789 14.6458 6.10618 14.6458 5.84373C14.6458 5.58128 14.5415 5.32957 14.3559 5.14399C14.1703 4.95841 13.9186 4.85415 13.6562 4.85415Z" fill="white"/>
</svg>
