<svg width="135" height="40" viewBox="0 0 135 40" fill="none" xmlns="http://www.w3.org/2000/svg">
<path d="M60.288 24.408H49.248L46.432 31H44.96L54.432 8.6H56.032L66.464 31H63.36L60.288 24.408ZM59.616 22.968L54.592 12.184H54.464L49.856 22.968H59.616ZM71.2775 31V8.6H74.1895V29.24H85.7415V31H71.2775ZM90.8475 31V8.6H98.2075C99.9782 8.6 101.6 8.888 103.072 9.464C104.544 10.0187 105.802 10.7973 106.848 11.8C107.914 12.7813 108.736 13.9547 109.312 15.32C109.909 16.6853 110.208 18.1573 110.208 19.736C110.208 21.3787 109.898 22.8933 109.28 24.28C108.682 25.6453 107.85 26.8293 106.784 27.832C105.738 28.8347 104.512 29.6133 103.104 30.168C101.696 30.7227 100.192 31 98.5915 31H90.8475ZM93.7595 29.592H97.2795C99.0288 29.592 100.512 29.304 101.728 28.728C102.965 28.1307 103.978 27.3627 104.767 26.424C105.557 25.4853 106.133 24.44 106.496 23.288C106.858 22.1147 107.04 20.952 107.04 19.8C107.04 18.52 106.826 17.2933 106.4 16.12C105.973 14.9253 105.344 13.88 104.512 12.984C103.701 12.0667 102.688 11.3413 101.472 10.808C100.256 10.2747 98.8582 10.008 97.2795 10.008H93.7595V29.592ZM127.444 24.408H116.404L113.588 31H112.116L121.588 8.6H123.188L133.62 31H130.516L127.444 24.408ZM126.772 22.968L121.748 12.184H121.62L117.012 22.968H126.772Z" fill="#323433"/>
<g clip-path="url(#clip0_566_412)">
<path d="M17.3501 0.0974808C12.084 0.778566 7.80084 3.16761 4.25218 7.40083C3.18655 8.67918 2.84514 9.20309 2.16231 10.5234C1.83124 11.152 1.51051 11.7912 1.42775 11.9379C1.21048 12.3675 0.372463 14.9766 0.258658 15.6053C-0.0310284 17.198 -0.186217 19.3565 -0.124142 20.7921C-0.0517202 22.3114 0.17589 24.4699 0.269003 24.5642C0.331079 24.6271 4.5936 24.449 4.65568 24.3756C4.68671 24.3442 4.66602 23.9565 4.60395 23.5059C4.55222 23.0449 4.53152 22.5419 4.56256 22.3847C4.60395 22.1857 4.56256 22.0285 4.42807 21.8818C4.27288 21.7037 4.26253 21.6303 4.36599 21.4731C4.49014 21.2636 4.54187 20.4044 4.42807 20.2891C4.35564 20.2157 2.75203 21.4312 2.05885 22.1018C1.3036 22.8248 0.869067 23.1077 0.765608 22.9401C0.600073 22.6677 0.537997 20.2262 0.662149 18.8221C0.858721 16.5274 1.1691 14.6623 1.44844 13.9812C1.59328 13.6354 1.77951 13.0905 1.87262 12.7762C2.15196 11.7284 3.5797 9.30787 4.81086 7.78853C5.81442 6.54161 7.58357 4.92796 8.70093 4.23639C10.2942 3.25144 11.2771 2.69609 11.8875 2.43413C14.743 1.1977 16.5949 0.799524 19.4917 0.799524C21.1781 0.799524 21.5609 0.830959 22.7093 1.07196C24.6337 1.49109 25.8959 1.9207 27.4477 2.67513C31.3999 4.62409 34.2967 7.54753 36.3349 11.6864C37.4729 13.9812 38.2282 17.3761 38.2179 20.111C38.2075 21.3579 38.073 23.223 37.9902 23.3173C37.8454 23.4535 37.1729 22.9506 36.2004 22.0075C35.0727 20.8968 34.4106 20.331 33.6139 19.7966C33.3346 19.608 32.331 18.665 31.3895 17.701C29.4755 15.7415 29.1341 15.5215 28.1927 15.6367C27.3339 15.7415 26.8994 16.0559 24.9854 18.0048C22.6059 20.4358 21.9851 20.8025 20.9919 20.3834C20.4539 20.1529 18.5709 18.1934 16.6776 15.8673C14.2567 12.9019 13.8222 12.5247 12.7669 12.5247C11.7944 12.5247 11.0391 13.0381 10.0252 14.4003C9.31134 15.3643 6.46621 18.2458 5.61785 18.8641L4.98675 19.3251L5.05917 19.7966C5.10055 20.0586 5.12124 20.5301 5.1109 20.8549C5.10055 21.2636 5.15228 21.4731 5.26609 21.5779C5.46266 21.7456 5.473 21.9342 5.27643 21.8608C5.01778 21.7561 4.87294 22.0599 4.98675 22.4162C5.05917 22.6048 5.05917 22.7515 4.99709 22.7829C4.94536 22.8248 4.90398 23.223 4.90398 23.6841V24.5328L6.27999 24.5014C7.06628 24.4804 7.67669 24.4175 7.71807 24.3547C7.75945 24.3023 7.80084 23.9355 7.80084 23.5374C7.80084 22.8667 7.79049 22.8353 7.56288 22.8353C7.19043 22.8353 7.15939 22.7305 7.44908 22.3847C7.78014 21.9761 7.75945 21.4522 7.40769 21.3684L7.16974 21.316L7.43873 20.9073C7.78014 20.4044 7.74911 20.0691 7.36631 20.0271C7.01455 19.9852 7.01455 19.9538 7.34562 19.4718C7.49046 19.2517 7.66634 18.8536 7.73876 18.5707C7.81118 18.2982 7.9043 18.0782 7.95603 18.0887C8.00776 18.0991 8.10087 18.3716 8.16294 18.6964C8.23537 19.0736 8.38021 19.3775 8.55609 19.5661C8.88716 19.9224 8.9182 20.0586 8.61817 19.9014C8.34917 19.7547 8.11121 19.8385 8.11121 20.0795C8.11121 20.1843 8.27675 20.5196 8.48367 20.8235C8.88716 21.3998 8.8975 21.5674 8.52505 21.3684C7.95603 21.0645 7.83187 21.6198 8.31813 22.2904C8.69059 22.8144 8.71128 22.9611 8.39055 22.8877C8.16294 22.8248 8.1526 22.8353 8.16294 23.6841V24.5328L9.35273 24.5223C10.0045 24.5118 10.5632 24.4699 10.5942 24.428C10.6253 24.3861 10.6356 24.0403 10.6149 23.6526C10.5839 23.0239 10.5529 22.9506 10.3252 22.8982C10.0666 22.8248 9.97348 22.521 10.2114 22.521C10.2839 22.521 10.4184 22.3847 10.5218 22.2171C10.7184 21.8818 10.7701 21.2112 10.5942 21.316C10.5322 21.3579 10.5011 21.4627 10.5115 21.557C10.5322 21.6722 10.4597 21.7456 10.3046 21.7665C10.0873 21.798 10.0666 21.777 10.1287 21.557C10.1701 21.4207 10.2839 21.2217 10.3873 21.1064C10.4908 20.9911 10.6356 20.6873 10.6977 20.4358L10.8218 19.9643L11.0805 20.6244C11.2667 21.0959 11.3081 21.3055 11.2253 21.4103C11.1426 21.5046 11.1529 21.5989 11.2667 21.7456C11.4633 22.018 11.4633 22.0704 11.215 22.1333C11.0081 22.1857 11.0081 22.1961 11.1736 22.6257C11.3185 22.982 11.3288 23.0868 11.215 23.1497C11.0701 23.244 10.8839 24.3023 10.9977 24.428C11.0391 24.4804 23.1025 24.6376 25.3889 24.6166C25.5338 24.6166 28.5134 24.6061 32.0103 24.5852L38.3627 24.5642L38.5489 23.7784C38.9938 21.8084 39.0973 19.1365 38.7972 17.2294C38.4662 15.0709 37.6799 12.5247 36.8108 10.7853C36.428 10.0099 35.3106 8.27053 34.6692 7.43227C33.9243 6.47874 32.5173 5.01179 31.5965 4.25735C29.2686 2.33983 25.9166 0.830959 22.6472 0.254654C21.5402 0.0555668 18.4054 -0.0387383 17.3501 0.0974808Z" fill="#323433"/>
<path d="M22.6989 7.73618C21.8609 7.99814 20.8884 8.80496 20.516 9.5594C20.0297 10.5129 20.0607 11.8437 20.5884 12.902C20.9194 13.5516 21.8092 14.4632 22.4506 14.7776C22.8541 14.9767 23.1128 15.0291 23.7335 15.0291C25.1199 15.0186 25.9579 14.4423 26.7856 12.9439C27.2822 12.0323 27.3753 11.6236 27.2408 10.8482C26.9822 9.36031 26.0096 8.19722 24.7061 7.79905C24.1681 7.6314 23.1335 7.61044 22.6989 7.73618Z" fill="#323433"/>
<path d="M4.55223 17.1457C4.5005 17.4286 4.45911 18.1935 4.47981 18.5498C4.49015 18.665 4.58327 18.7174 4.75915 18.7174H5.03849L4.97641 17.9735C4.91434 17.1876 4.83157 16.8628 4.69707 16.8628C4.64534 16.8628 4.58327 16.9885 4.55223 17.1457Z" fill="#323433"/>
<path d="M0.589724 25.633C0.558687 25.7064 0.569033 25.8845 0.60007 26.0312L0.662146 26.2931L9.9321 26.2303C19.0262 26.1674 22.5645 26.2198 22.2748 26.4084C22.192 26.4608 21.6023 26.6704 20.9609 26.8799C19.6262 27.3095 17.6191 28.3154 16.181 29.2794C14.7533 30.2225 14.7016 30.2434 13.698 29.971C12.0737 29.5204 11.215 29.4261 7.90429 29.3214C6.11445 29.269 4.06596 29.1851 3.35209 29.1327C2.63822 29.0908 2.01746 29.0908 1.97608 29.1327C1.85193 29.2271 2.06919 29.6147 2.30715 29.751C2.42095 29.8034 4.06596 29.8767 6.25929 29.9081C10.2632 29.971 13.4807 30.1282 13.8429 30.2749L14.0601 30.3692H13.8325C13.6566 30.3797 13.6152 30.4216 13.667 30.5578C13.7084 30.6626 13.8015 30.8093 13.8635 30.8826C14.0705 31.0817 14.8568 30.7569 16.4914 29.8034C18.5399 28.5984 19.1089 28.305 20.3711 27.7287C22.5127 26.7542 22.461 26.7647 27.0443 26.5551C27.8616 26.5132 28.5858 26.4608 28.6375 26.4294C28.6893 26.3874 30.8205 26.3351 33.3656 26.3036C35.9107 26.2722 38.0213 26.2093 38.0627 26.1779C38.0937 26.136 38.1351 25.9788 38.1454 25.8111L38.1661 25.5073L35.4245 25.5387C33.9139 25.5492 31.3585 25.6225 29.7342 25.6959C25.9579 25.8531 23.5577 25.8531 22.6472 25.6854C21.5402 25.4863 0.662146 25.4339 0.589724 25.633Z" fill="#323433"/>
<path d="M1.13806 27.2152C1.10702 27.2572 1.1484 27.4143 1.21048 27.561L1.34498 27.8125L6.50759 27.7811C11.7116 27.7496 13.4497 27.6658 14.1015 27.4353C14.4119 27.32 14.4326 27.2991 14.2567 27.2257C13.9877 27.1209 1.21048 27.1105 1.13806 27.2152Z" fill="#323433"/>
<path d="M29.0617 27.3934C27.6443 27.5296 25.8027 27.7601 24.4578 27.9802C22.6369 28.2631 20.6401 28.9546 19.6572 29.6357C18.1674 30.6626 14.8981 32.4753 14.5257 32.4753C14.3601 32.4753 13.667 32.8945 13.5738 33.0516C13.4497 33.2507 12.3116 33.7327 11.6598 33.848C10.9046 33.9947 9.06302 33.9004 7.18006 33.6175C5.51437 33.3765 5.15226 33.2822 4.88327 33.0307C4.67635 32.8421 4.67635 32.8421 4.84188 33.2507C5.06949 33.7956 5.07984 33.8166 6.40412 34.9692C8.15258 36.499 9.53893 37.3792 11.6081 38.2908C13.6152 39.171 15.1154 39.6425 16.3983 39.7997C17.6605 39.9673 20.9195 39.9463 22.0782 39.7577C25.1613 39.2967 28.6996 37.9031 30.717 36.3837C31.8344 35.535 33.7174 33.8585 33.7174 33.7013C33.7174 33.6175 33.5208 33.5756 33.2001 33.5651C32.9207 33.5651 32.2172 33.4917 31.6482 33.4184C30.4894 33.2612 26.3718 33.3346 25.3992 33.5232C24.3957 33.7118 22.7921 34.5081 21.0643 35.6607C18.6537 37.2534 17.557 37.7773 15.7258 38.186C14.4326 38.4794 12.7151 38.2698 13.6152 37.924C13.8015 37.8612 14.1222 37.7354 14.3188 37.6516C14.5153 37.5678 15.2602 37.3373 15.9741 37.1382C17.5467 36.6876 18.4985 36.2161 20.2677 35.032C21.7471 34.0471 23.299 33.2507 24.5198 32.8421C24.9647 32.6954 26.2993 32.4334 27.6029 32.2448L29.8894 31.9095L32.2379 32.1505C34.783 32.402 34.8244 32.402 35.1554 31.8362C35.2486 31.679 35.321 31.5323 35.321 31.5113C35.321 31.438 31.4723 31.2703 29.9928 31.2808C28.6065 31.2913 25.6165 31.6371 24.7474 31.899C23.9818 32.1296 21.6333 33.366 20.1435 34.33C18.3433 35.4931 17.2156 36.0065 15.0947 36.6666C13.191 37.2639 12.2392 37.4001 11.3495 37.2115C10.677 37.0648 9.77689 36.7086 9.4872 36.478C9.25959 36.3104 9.32167 36.2999 11.0908 36.2894C14.2463 36.258 14.9705 35.9646 21.0229 32.2029C22.6783 31.176 24.7681 30.3587 26.2166 30.1806C28.0685 29.9396 29.9308 29.8663 31.3585 29.9606C32.1448 30.0129 33.5725 30.0653 34.5347 30.0863L36.2935 30.1177L36.5315 29.7615C36.666 29.5624 36.7694 29.3738 36.7694 29.3319C36.7694 29.248 32.7448 29.1642 30.3549 29.2061C28.4823 29.2271 26.6407 29.4157 24.9751 29.751C23.0611 30.1387 22.3265 30.453 20.578 31.6371C19.5848 32.3077 16.6466 33.9842 15.043 34.8015C14.0498 35.3045 12.084 35.7236 10.7494 35.7341C8.82506 35.7341 7.25248 35.294 6.60069 34.5605L6.40412 34.3405L7.64563 34.4243C8.32846 34.4767 9.61135 34.5186 10.4908 34.5186L12.0944 34.5081L13.429 33.9528C14.9809 33.3136 15.1775 33.1983 18.1467 31.3961C21.1367 29.5624 21.1264 29.5729 21.9644 29.2795C22.8541 28.9546 25.4406 28.4412 26.5787 28.3364C27.0339 28.305 27.9443 28.2002 28.5961 28.1164C29.4859 27.9906 30.717 27.9592 33.4898 27.9697C37.4212 27.9802 37.4936 27.9697 37.4936 27.4877V27.2362L34.007 27.2467C32.0517 27.2572 29.8687 27.32 29.0617 27.3934Z" fill="#323433"/>
<path d="M3.27964 31.4904C3.36241 31.658 3.70382 32.0248 4.03489 32.3077C4.56253 32.7792 4.62461 32.8002 4.56253 32.5592C4.50046 32.3182 4.5315 32.2867 4.85222 32.2344C5.26606 32.161 7.40766 32.3077 9.33201 32.5277C10.4701 32.664 10.9874 32.6744 12.2806 32.5697C13.1497 32.5068 13.8739 32.4439 13.8946 32.4125C14.0187 32.2867 13.1807 32.161 11.515 32.0667C10.4701 32.0143 9.05267 31.8676 8.36983 31.7419C7.687 31.6266 6.43515 31.4799 5.57644 31.4275C4.72807 31.3751 3.81763 31.3018 3.57967 31.2599L3.12445 31.1865L3.27964 31.4904Z" fill="#323433"/>
</g>
<defs>
<clipPath id="clip0_566_412">
<rect width="39" height="40" fill="white"/>
</clipPath>
</defs>
</svg>
