<svg width="135" height="40" viewBox="0 0 135 40" fill="none" xmlns="http://www.w3.org/2000/svg">
<path d="M60.288 22.408H49.248L46.432 29H44.96L54.432 6.6H56.032L66.464 29H63.36L60.288 22.408ZM59.616 20.968L54.592 10.184H54.464L49.856 20.968H59.616ZM71.2775 29V6.6H74.1895V27.24H85.7415V29H71.2775ZM90.8475 29V6.6H98.2075C99.9782 6.6 101.6 6.888 103.072 7.464C104.544 8.01867 105.802 8.79733 106.848 9.8C107.914 10.7813 108.736 11.9547 109.312 13.32C109.909 14.6853 110.208 16.1573 110.208 17.736C110.208 19.3787 109.898 20.8933 109.28 22.28C108.682 23.6453 107.85 24.8293 106.784 25.832C105.738 26.8347 104.512 27.6133 103.104 28.168C101.696 28.7227 100.192 29 98.5915 29H90.8475ZM93.7595 27.592H97.2795C99.0288 27.592 100.512 27.304 101.728 26.728C102.965 26.1307 103.978 25.3627 104.767 24.424C105.557 23.4853 106.133 22.44 106.496 21.288C106.858 20.1147 107.04 18.952 107.04 17.8C107.04 16.52 106.826 15.2933 106.4 14.12C105.973 12.9253 105.344 11.88 104.512 10.984C103.701 10.0667 102.688 9.34133 101.472 8.808C100.256 8.27467 98.8582 8.008 97.2795 8.008H93.7595V27.592ZM127.444 22.408H116.404L113.588 29H112.116L121.588 6.6H123.188L133.62 29H130.516L127.444 22.408ZM126.772 20.968L121.748 10.184H121.62L117.012 20.968H126.772Z" fill="#323433"/>
<g clip-path="url(#clip0_2498_506)">
<path d="M17.3501 0.0975266C12.084 0.778612 7.80084 3.16766 4.25218 7.40088C3.18655 8.67922 2.84514 9.20314 2.16231 10.5234C1.83124 11.1521 1.51051 11.7913 1.42775 11.938C1.21048 12.3676 0.372463 14.9767 0.258658 15.6054C-0.0310284 17.1981 -0.186217 19.3566 -0.124142 20.7921C-0.0517202 22.3114 0.17589 24.47 0.269003 24.5643C0.331079 24.6271 4.5936 24.449 4.65568 24.3757C4.68671 24.3442 4.66602 23.9565 4.60395 23.506C4.55222 23.0449 4.53152 22.542 4.56256 22.3848C4.60395 22.1857 4.56256 22.0285 4.42807 21.8818C4.27288 21.7037 4.26253 21.6304 4.36599 21.4732C4.49014 21.2636 4.54187 20.4044 4.42807 20.2891C4.35564 20.2158 2.75203 21.4313 2.05885 22.1019C1.3036 22.8249 0.869067 23.1078 0.765608 22.9401C0.600073 22.6677 0.537997 20.2263 0.662149 18.8222C0.858721 16.5274 1.1691 14.6623 1.44844 13.9812C1.59328 13.6354 1.77951 13.0906 1.87262 12.7762C2.15196 11.7284 3.5797 9.30792 4.81086 7.78857C5.81442 6.54166 7.58357 4.92801 8.70093 4.23644C10.2942 3.25148 11.2771 2.69613 11.8875 2.43418C14.743 1.19774 16.5949 0.79957 19.4917 0.79957C21.1781 0.79957 21.5609 0.831005 22.7093 1.072C24.6337 1.49113 25.8959 1.92074 27.4477 2.67518C31.3999 4.62414 34.2967 7.54757 36.3349 11.6865C37.4729 13.9812 38.2282 17.3762 38.2179 20.111C38.2075 21.3579 38.073 23.2231 37.9902 23.3174C37.8454 23.4536 37.1729 22.9506 36.2004 22.0076C35.0727 20.8969 34.4106 20.3311 33.6139 19.7967C33.3346 19.6081 32.331 18.665 31.3895 17.701C29.4755 15.7416 29.1341 15.5215 28.1927 15.6368C27.3339 15.7416 26.8994 16.0559 24.9854 18.0049C22.6059 20.4358 21.9851 20.8026 20.9919 20.3834C20.4539 20.1529 18.5709 18.1935 16.6776 15.8673C14.2567 12.902 13.8222 12.5247 12.7669 12.5247C11.7944 12.5247 11.0391 13.0382 10.0252 14.4004C9.31134 15.3644 6.46621 18.2459 5.61785 18.8641L4.98675 19.3251L5.05917 19.7967C5.10055 20.0586 5.12124 20.5301 5.1109 20.855C5.10055 21.2636 5.15228 21.4732 5.26609 21.578C5.46266 21.7456 5.473 21.9342 5.27643 21.8609C5.01778 21.7561 4.87294 22.06 4.98675 22.4162C5.05917 22.6048 5.05917 22.7515 4.99709 22.783C4.94536 22.8249 4.90398 23.2231 4.90398 23.6841V24.5328L6.27999 24.5014C7.06628 24.4804 7.67669 24.4176 7.71807 24.3547C7.75945 24.3023 7.80084 23.9356 7.80084 23.5374C7.80084 22.8668 7.79049 22.8354 7.56288 22.8354C7.19043 22.8354 7.15939 22.7306 7.44908 22.3848C7.78014 21.9761 7.75945 21.4522 7.40769 21.3684L7.16974 21.316L7.43873 20.9074C7.78014 20.4044 7.74911 20.0691 7.36631 20.0272C7.01455 19.9853 7.01455 19.9538 7.34562 19.4718C7.49046 19.2518 7.66634 18.8536 7.73876 18.5707C7.81118 18.2983 7.9043 18.0782 7.95603 18.0887C8.00776 18.0992 8.10087 18.3716 8.16294 18.6964C8.23537 19.0737 8.38021 19.3775 8.55609 19.5661C8.88716 19.9224 8.9182 20.0586 8.61817 19.9014C8.34917 19.7547 8.11121 19.8386 8.11121 20.0796C8.11121 20.1844 8.27675 20.5197 8.48367 20.8235C8.88716 21.3998 8.8975 21.5675 8.52505 21.3684C7.95603 21.0645 7.83187 21.6199 8.31813 22.2905C8.69059 22.8144 8.71128 22.9611 8.39055 22.8878C8.16294 22.8249 8.1526 22.8354 8.16294 23.6841V24.5328L9.35273 24.5224C10.0045 24.5119 10.5632 24.47 10.5942 24.4281C10.6253 24.3861 10.6356 24.0404 10.6149 23.6527C10.5839 23.024 10.5529 22.9506 10.3252 22.8982C10.0666 22.8249 9.97348 22.521 10.2114 22.521C10.2839 22.521 10.4184 22.3848 10.5218 22.2171C10.7184 21.8818 10.7701 21.2112 10.5942 21.316C10.5322 21.3579 10.5011 21.4627 10.5115 21.557C10.5322 21.6723 10.4597 21.7456 10.3046 21.7666C10.0873 21.798 10.0666 21.7771 10.1287 21.557C10.1701 21.4208 10.2839 21.2217 10.3873 21.1064C10.4908 20.9912 10.6356 20.6873 10.6977 20.4358L10.8218 19.9643L11.0805 20.6244C11.2667 21.096 11.3081 21.3055 11.2253 21.4103C11.1426 21.5046 11.1529 21.5989 11.2667 21.7456C11.4633 22.0181 11.4633 22.0704 11.215 22.1333C11.0081 22.1857 11.0081 22.1962 11.1736 22.6258C11.3185 22.9821 11.3288 23.0868 11.215 23.1497C11.0701 23.244 10.8839 24.3023 10.9977 24.4281C11.0391 24.4804 23.1025 24.6376 25.3889 24.6167C25.5338 24.6167 28.5134 24.6062 32.0103 24.5852L38.3627 24.5643L38.5489 23.7784C38.9938 21.8085 39.0973 19.1365 38.7972 17.2295C38.4662 15.071 37.6799 12.5247 36.8108 10.7854C36.428 10.01 35.3106 8.27057 34.6692 7.43231C33.9243 6.47879 32.5173 5.01183 31.5965 4.2574C29.2686 2.33987 25.9166 0.831005 22.6472 0.2547C21.5402 0.0556126 18.4054 -0.0386925 17.3501 0.0975266Z" fill="#323433"/>
<path d="M22.6989 7.73617C21.8609 7.99813 20.8883 8.80496 20.5159 9.55939C20.0296 10.5129 20.0607 11.8437 20.5883 12.902C20.9194 13.5516 21.8091 14.4632 22.4506 14.7776C22.8541 14.9767 23.1127 15.029 23.7335 15.029C25.1198 15.0186 25.9578 14.4423 26.7855 12.9439C27.2821 12.0323 27.3752 11.6236 27.2407 10.8482C26.9821 9.36031 26.0096 8.19722 24.706 7.79904C24.168 7.63139 23.1334 7.61044 22.6989 7.73617Z" fill="#323433"/>
<path d="M4.55223 17.1457C4.5005 17.4286 4.45911 18.1935 4.47981 18.5497C4.49015 18.665 4.58327 18.7174 4.75915 18.7174H5.03849L4.97641 17.9734C4.91434 17.1876 4.83157 16.8627 4.69707 16.8627C4.64534 16.8627 4.58327 16.9885 4.55223 17.1457Z" fill="#323433"/>
<path d="M0.589785 25.6331C0.558748 25.7064 0.569094 25.8845 0.600131 26.0312L0.662207 26.2932L9.93216 26.2303C19.0262 26.1674 22.5645 26.2198 22.2748 26.4084C22.1921 26.4608 21.6024 26.6704 20.9609 26.88C19.6263 27.3096 17.6192 28.3155 16.1811 29.2795C14.7534 30.2225 14.7016 30.2435 13.6981 29.9711C12.0738 29.5205 11.2151 29.4262 7.90436 29.3214C6.11451 29.269 4.06602 29.1852 3.35215 29.1328C2.63828 29.0909 2.01752 29.0909 1.97614 29.1328C1.85199 29.2271 2.06925 29.6148 2.30721 29.751C2.42101 29.8034 4.06602 29.8768 6.25935 29.9082C10.2632 29.9711 13.4808 30.1282 13.8429 30.2749L14.0602 30.3692H13.8326C13.6567 30.3797 13.6153 30.4216 13.667 30.5578C13.7084 30.6626 13.8015 30.8093 13.8636 30.8827C14.0705 31.0818 14.8568 30.7569 16.4915 29.8034C18.54 28.5984 19.109 28.305 20.3712 27.7287C22.5128 26.7542 22.4611 26.7647 27.0443 26.5551C27.8616 26.5132 28.5859 26.4608 28.6376 26.4294C28.6893 26.3875 30.8206 26.3351 33.3657 26.3037C35.9108 26.2722 38.0213 26.2094 38.0627 26.1779C38.0938 26.136 38.1351 25.9788 38.1455 25.8112L38.1662 25.5073L35.4245 25.5387C33.914 25.5492 31.3586 25.6226 29.7343 25.6959C25.958 25.8531 23.5577 25.8531 22.6473 25.6854C21.5403 25.4864 0.662207 25.434 0.589785 25.6331Z" fill="#323433"/>
<path d="M1.138 27.2153C1.10696 27.2572 1.14834 27.4144 1.21042 27.5611L1.34491 27.8125L6.50753 27.7811C11.7115 27.7497 13.4496 27.6658 14.1014 27.4353C14.4118 27.3201 14.4325 27.2991 14.2566 27.2257C13.9876 27.121 1.21042 27.1105 1.138 27.2153Z" fill="#323433"/>
<path d="M29.0616 27.3934C27.6442 27.5296 25.8027 27.7601 24.4577 27.9802C22.6368 28.2631 20.6401 28.9547 19.6572 29.6358C18.1674 30.6626 14.8981 32.4754 14.5256 32.4754C14.3601 32.4754 13.6669 32.8945 13.5738 33.0517C13.4496 33.2508 12.3116 33.7328 11.6598 33.848C10.9045 33.9947 9.06296 33.9004 7.18 33.6175C5.51431 33.3765 5.1522 33.2822 4.88321 33.0307C4.67629 32.8421 4.67629 32.8421 4.84182 33.2508C5.06943 33.7956 5.07978 33.8166 6.40406 34.9692C8.15252 36.499 9.53887 37.3792 11.6081 38.2908C13.6152 39.171 15.1153 39.6425 16.3982 39.7997C17.6604 39.9673 20.9194 39.9464 22.0781 39.7578C25.1612 39.2967 28.6995 37.9031 30.717 36.3838C31.8343 35.535 33.7173 33.8585 33.7173 33.7013C33.7173 33.6175 33.5207 33.5756 33.2 33.5651C32.9207 33.5651 32.2171 33.4918 31.6481 33.4184C30.4894 33.2612 26.3717 33.3346 25.3992 33.5232C24.3956 33.7118 22.792 34.5081 21.0642 35.6608C18.6536 37.2535 17.557 37.7774 15.7257 38.186C14.4325 38.4794 12.7151 38.2698 13.6152 37.9241C13.8014 37.8612 14.1221 37.7355 14.3187 37.6516C14.5153 37.5678 15.2602 37.3373 15.974 37.1382C17.5466 36.6876 18.4984 36.2161 20.2676 35.0321C21.7471 34.0471 23.299 33.2508 24.5198 32.8421C24.9646 32.6954 26.2993 32.4334 27.6029 32.2448L29.8893 31.9095L32.2378 32.1505C34.7829 32.402 34.8243 32.402 35.1554 31.8362C35.2485 31.679 35.3209 31.5323 35.3209 31.5114C35.3209 31.438 31.4722 31.2704 29.9928 31.2808C28.6064 31.2913 25.6164 31.6371 24.7474 31.8991C23.9818 32.1296 21.6333 33.366 20.1434 34.33C18.3433 35.4931 17.2155 36.0065 15.0946 36.6667C13.191 37.2639 12.2392 37.4001 11.3494 37.2115C10.6769 37.0648 9.77683 36.7086 9.48714 36.4781C9.25953 36.3104 9.32161 36.2999 11.0908 36.2895C14.2463 36.258 14.9705 35.9646 21.0229 32.2029C22.6782 31.1761 24.7681 30.3588 26.2165 30.1806C28.0684 29.9396 29.9307 29.8663 31.3584 29.9606C32.1447 30.013 33.5725 30.0654 34.5346 30.0863L36.2934 30.1178L36.5314 29.7615C36.6659 29.5624 36.7693 29.3738 36.7693 29.3319C36.7693 29.2481 32.7448 29.1642 30.3549 29.2061C28.4823 29.2271 26.6407 29.4157 24.975 29.751C23.061 30.1387 22.3264 30.4531 20.578 31.6371C19.5848 32.3077 16.6465 33.9842 15.0429 34.8015C14.0497 35.3045 12.084 35.7236 10.7493 35.7341C8.825 35.7341 7.25242 35.294 6.60063 34.5605L6.40406 34.3405L7.64557 34.4243C8.3284 34.4767 9.61129 34.5186 10.4907 34.5186L12.0943 34.5081L13.4289 33.9528C14.9808 33.3136 15.1774 33.1984 18.1467 31.3961C21.1367 29.5624 21.1263 29.5729 21.9643 29.2795C22.8541 28.9547 25.4406 28.4412 26.5786 28.3364C27.0338 28.305 27.9443 28.2002 28.5961 28.1164C29.4858 27.9907 30.717 27.9592 33.4897 27.9697C37.4211 27.9802 37.4936 27.9697 37.4936 27.4877V27.2362L34.007 27.2467C32.0516 27.2572 29.8686 27.3201 29.0616 27.3934Z" fill="#323433"/>
<path d="M3.2797 31.4904C3.36247 31.6581 3.70388 32.0248 4.03495 32.3077C4.5626 32.7792 4.62467 32.8002 4.5626 32.5592C4.50052 32.3182 4.53156 32.2868 4.85228 32.2344C5.26612 32.161 7.40772 32.3077 9.33207 32.5278C10.4701 32.664 10.9874 32.6744 12.2807 32.5697C13.1497 32.5068 13.8739 32.4439 13.8946 32.4125C14.0188 32.2868 13.1808 32.161 11.5151 32.0667C10.4701 32.0143 9.05273 31.8676 8.3699 31.7419C7.68707 31.6266 6.43521 31.4799 5.5765 31.4275C4.72813 31.3751 3.81769 31.3018 3.57973 31.2599L3.12451 31.1865L3.2797 31.4904Z" fill="#323433"/>
</g>
<defs>
<clipPath id="clip0_2498_506">
<rect width="39" height="40" fill="white"/>
</clipPath>
</defs>
</svg>
