<svg width="18" height="16" viewBox="0 0 18 16" fill="none" xmlns="http://www.w3.org/2000/svg">
<path fill-rule="evenodd" clip-rule="evenodd" d="M1.92115 1.97115C2.67126 1.22127 3.68849 0.800007 4.74915 0.800007C5.8098 0.800007 6.82703 1.22127 7.57715 1.97115L8.74915 3.14215L9.92115 1.97115C10.2901 1.58911 10.7315 1.28438 11.2195 1.07475C11.7075 0.865111 12.2324 0.754766 12.7635 0.750151C13.2947 0.745536 13.8214 0.846743 14.313 1.04787C14.8045 1.24899 15.2512 1.546 15.6267 1.92157C16.0023 2.29714 16.2993 2.74375 16.5004 3.23534C16.7016 3.72692 16.8028 4.25364 16.7981 4.78476C16.7935 5.31587 16.6832 5.84076 16.4736 6.32877C16.2639 6.81679 15.9592 7.25817 15.5771 7.62715L8.74915 14.4562L1.92115 7.62715C1.17126 6.87704 0.75 5.85981 0.75 4.79915C0.75 3.7385 1.17126 2.72126 1.92115 1.97115V1.97115Z" stroke="#3C101E" stroke-width="1.5" stroke-linejoin="round"/>
</svg>
