<svg width="16" height="17" viewBox="0 0 16 17" fill="none" xmlns="http://www.w3.org/2000/svg">
<path d="M1.76723 11.8759L0.875378 6.55741C0.740563 5.75296 0.673155 5.35148 0.889452 5.08778C1.10501 4.82407 1.50204 4.82407 2.29538 4.82407H13.2791C14.0724 4.82407 14.4695 4.82407 14.685 5.08778C14.9013 5.35148 14.8332 5.75296 14.6991 6.55741L13.8072 11.8759C13.5117 13.6389 13.3643 14.5196 12.7606 15.0426C12.1576 15.5648 11.288 15.5648 9.54871 15.5648H6.02575C4.28649 15.5648 3.41686 15.5648 2.8139 15.0419C2.21019 14.5196 2.06279 13.6381 1.76723 11.8752M11.8613 4.82407C11.8613 3.74356 11.4321 2.70731 10.668 1.94327C9.904 1.17923 8.86774 0.75 7.78723 0.75C6.70672 0.75 5.67046 1.17923 4.90642 1.94327C4.14239 2.70731 3.71316 3.74356 3.71316 4.82407" stroke="#3C101E" stroke-width="1.5" stroke-linecap="round" stroke-linejoin="round"/>
</svg>
