<svg width="75" height="76" viewBox="0 0 75 76" fill="none" xmlns="http://www.w3.org/2000/svg">
<rect y="0.5" width="75" height="75" rx="37.5" fill="#C1A286"/>
<path d="M18.2499 32.2188C30.6249 32.2188 42.9999 32.2188 55.7499 32.2188C55.7499 48.4759 55.7499 48.4759 55.164 49.3281C55.1197 49.3942 55.0754 49.4603 55.0297 49.5283C54.3035 50.522 53.371 51.0787 52.1562 51.2813C51.9833 51.2884 51.8103 51.2913 51.6373 51.2915C51.586 51.2917 51.5346 51.2918 51.4817 51.292C51.3094 51.2924 51.1371 51.2923 50.9647 51.2922C50.84 51.2924 50.7153 51.2927 50.5906 51.2929C50.2477 51.2936 49.9048 51.2937 49.5619 51.2938C49.1921 51.2939 48.8223 51.2945 48.4526 51.295C47.6439 51.2961 46.8352 51.2965 46.0265 51.2969C45.5214 51.2971 45.0164 51.2974 44.5113 51.2978C43.1129 51.2987 41.7144 51.2995 40.3159 51.2998C40.2264 51.2998 40.1369 51.2998 40.0446 51.2999C39.9549 51.2999 39.8652 51.2999 39.7727 51.2999C39.5909 51.2999 39.4091 51.3 39.2273 51.3C39.092 51.3 39.092 51.3 38.954 51.3001C37.4931 51.3004 36.0322 51.3017 34.5714 51.3036C33.0713 51.3054 31.5712 51.3064 30.071 51.3065C29.2289 51.3066 28.3867 51.307 27.5446 51.3084C26.8274 51.3096 26.1102 51.31 25.3929 51.3094C25.0271 51.3091 24.6614 51.3091 24.2956 51.3102C23.9603 51.3112 23.6251 51.3111 23.2898 51.3102C23.1689 51.31 23.048 51.3103 22.9272 51.311C21.5495 51.3183 20.3486 51.025 19.3437 50.0313C15.6527 45.5002 18.2499 34.4436 18.2499 32.2188ZM23.5357 35.973C23.3457 36.3106 23.3614 36.6125 23.3647 36.9938C23.3642 37.1084 23.3642 37.1084 23.3638 37.2253C23.3635 37.3865 23.3641 37.5477 23.3654 37.7089C23.3671 37.955 23.3654 38.2009 23.3634 38.4469C23.3636 38.6038 23.364 38.7608 23.3647 38.9177C23.364 38.9909 23.3634 39.0642 23.3627 39.1396C23.369 39.5789 23.4195 39.8426 23.7187 40.1875C24.0674 40.42 24.3773 40.4316 24.7894 40.4332C24.877 40.4337 24.9646 40.4342 25.0548 40.4347C25.1488 40.4348 25.2427 40.4349 25.3394 40.435C25.4366 40.4353 25.5338 40.4355 25.6339 40.4358C25.8393 40.4362 26.0446 40.4364 26.25 40.4364C26.4601 40.4363 26.6702 40.4369 26.8803 40.438C27.1837 40.4394 27.4872 40.4398 27.7906 40.4399C27.8844 40.4404 27.9781 40.441 28.0747 40.4416C28.1626 40.4413 28.2505 40.4411 28.341 40.4409C28.4563 40.441 28.4563 40.441 28.574 40.4412C29.0625 40.3988 29.3351 40.2419 29.6562 39.875C29.7463 39.6946 29.746 39.5866 29.7494 39.3857C29.7512 39.2824 29.7512 39.2824 29.7532 39.1771C29.7566 38.8616 29.7598 38.5462 29.7616 38.2307C29.7629 38.0644 29.7651 37.8982 29.768 37.7319C29.7723 37.4921 29.774 37.2523 29.7752 37.0125C29.7778 36.9015 29.7778 36.9015 29.7805 36.7882C29.7795 36.4505 29.7719 36.2016 29.5608 35.9279C29.2164 35.6209 28.9341 35.5587 28.4787 35.5567C28.3848 35.5559 28.2909 35.5552 28.1942 35.5544C28.0935 35.5545 27.9927 35.5546 27.8889 35.5546C27.7837 35.5543 27.6786 35.554 27.5734 35.5536C27.3533 35.553 27.1333 35.5531 26.9132 35.5535C26.632 35.5539 26.3509 35.5526 26.0698 35.5508C25.8527 35.5496 25.6356 35.5496 25.4185 35.5498C25.2647 35.5497 25.1109 35.5487 24.9571 35.5476C24.863 35.5481 24.7689 35.5485 24.6719 35.549C24.5895 35.549 24.507 35.5489 24.4221 35.5489C24.0628 35.5936 23.8056 35.7362 23.5357 35.973ZM23.3378 44.377C23.1992 44.6695 23.1984 44.9484 23.2499 45.2656C23.4183 45.5483 23.5749 45.6875 23.8749 45.8125C24.0417 45.8369 24.0417 45.8369 24.2185 45.8352C24.3194 45.8367 24.3194 45.8367 24.4224 45.8382C24.4945 45.8384 24.5666 45.8386 24.6409 45.8387C24.7156 45.8393 24.7904 45.8398 24.8674 45.8403C25.0254 45.8411 25.1834 45.8415 25.3414 45.8415C25.5825 45.8418 25.8235 45.8446 26.0645 45.8476C26.2183 45.8481 26.372 45.8484 26.5257 45.8485C26.6334 45.8502 26.6334 45.8502 26.7432 45.8519C27.1919 45.8487 27.4363 45.7926 27.7812 45.5C27.9832 45.2336 27.9659 44.9657 27.9374 44.6406C27.8311 44.3808 27.7425 44.2753 27.5062 44.1238C27.1563 43.9846 26.8602 43.9819 26.4872 43.9845C26.4162 43.9843 26.3451 43.984 26.2719 43.9838C26.1222 43.9837 25.9725 43.9841 25.8228 43.9851C25.5944 43.9863 25.3661 43.9851 25.1377 43.9836C24.9919 43.9837 24.846 43.984 24.7001 43.9845C24.5983 43.9838 24.5983 43.9838 24.4944 43.9831C24.0321 43.9884 23.6982 44.0646 23.3378 44.377ZM31.1405 44.25C31.0954 44.2806 31.0503 44.3112 31.0038 44.3428C30.8419 44.5775 30.8196 44.8315 30.828 45.1094C30.9193 45.378 30.9996 45.5264 31.2184 45.7065C31.5559 45.859 31.8631 45.846 32.2294 45.8436C32.3416 45.844 32.3416 45.844 32.4561 45.8443C32.614 45.8445 32.7718 45.844 32.9297 45.8431C33.171 45.8418 33.4121 45.843 33.6534 45.8445C33.807 45.8444 33.9606 45.8441 34.1142 45.8436C34.1861 45.8441 34.2581 45.8446 34.3322 45.8451C34.713 45.8409 34.972 45.8257 35.2812 45.5781C35.4865 45.3581 35.5796 45.1773 35.5937 44.875C35.4994 44.559 35.4132 44.3751 35.1634 44.1575C34.8045 43.9709 34.522 43.9719 34.1236 43.9769C34.0507 43.9768 33.9777 43.9766 33.9025 43.9765C33.7488 43.9767 33.5951 43.9776 33.4414 43.9792C33.2064 43.9814 32.9717 43.9808 32.7368 43.9798C32.5871 43.9803 32.4374 43.9809 32.2877 43.9818C32.2177 43.9815 32.1477 43.9813 32.0756 43.9811C31.6974 43.9868 31.4508 44.0105 31.1405 44.25ZM38.6405 44.3281C38.4513 44.6416 38.3946 44.7993 38.4501 45.1631C38.563 45.4233 38.6538 45.5602 38.8749 45.7344C39.0906 45.8063 39.2225 45.8231 39.4452 45.8251C39.5128 45.8258 39.5803 45.8266 39.6499 45.8274C39.7591 45.8279 39.7591 45.8279 39.8704 45.8284C39.983 45.829 39.983 45.829 40.0978 45.8297C40.2566 45.8305 40.4154 45.831 40.5742 45.8313C40.8168 45.832 41.0594 45.8345 41.302 45.8369C41.4563 45.8374 41.6106 45.8378 41.7649 45.8381C41.8374 45.8391 41.9098 45.8401 41.9844 45.8411C42.3652 45.8397 42.6313 45.8314 42.9374 45.5781C43.1614 45.2571 43.2093 45.0096 43.1443 44.6327C43.0596 44.3847 42.9049 44.2524 42.703 44.0938C42.4903 44.0228 42.3604 44.0047 42.1411 44.0018C42.0425 44.0003 42.0425 44.0003 41.9419 43.9988C41.8711 43.9982 41.8003 43.9976 41.7274 43.997C41.6543 43.9964 41.5811 43.9957 41.5058 43.9951C41.351 43.994 41.1962 43.9932 41.0414 43.9926C40.8053 43.9912 40.5693 43.9878 40.3332 43.9843C40.1827 43.9836 40.0322 43.9829 39.8817 43.9824C39.8114 43.981 39.741 43.9796 39.6686 43.9782C39.2356 43.9797 38.9802 44.0327 38.6405 44.3281ZM46.1503 44.4258C46.0366 44.7037 46.0258 44.8892 46.0624 45.1875C46.2284 45.5017 46.3579 45.6813 46.6874 45.8125C46.8542 45.8369 46.8542 45.8369 47.031 45.8352C47.1319 45.8367 47.1319 45.8367 47.2349 45.8382C47.307 45.8384 47.3791 45.8386 47.4534 45.8387C47.5281 45.8393 47.6029 45.8398 47.6799 45.8403C47.8379 45.8411 47.9959 45.8415 48.1539 45.8415C48.395 45.8418 48.636 45.8446 48.877 45.8476C49.0308 45.8481 49.1845 45.8484 49.3382 45.8485C49.4459 45.8502 49.4459 45.8502 49.5557 45.8519C49.9924 45.8488 50.2504 45.7969 50.5937 45.5C50.8036 45.185 50.8026 44.9325 50.7499 44.5625C50.5652 44.241 50.3963 44.1212 50.0468 44.0156C49.8003 43.9924 49.5548 43.9919 49.3073 43.9921C49.2362 43.9918 49.165 43.9915 49.0917 43.9911C48.9415 43.9907 48.7913 43.9906 48.6412 43.991C48.4121 43.9912 48.1831 43.9894 47.954 43.9874C47.8078 43.9872 47.6616 43.9872 47.5154 43.9872C47.4472 43.9865 47.3791 43.9858 47.3089 43.9851C46.8385 43.9886 46.4683 44.0442 46.1503 44.4258Z" fill="white"/>
<path d="M22.3626 24.7085C22.4139 24.7084 22.4653 24.7082 22.5182 24.7081C22.6905 24.7076 22.8629 24.7077 23.0352 24.7078C23.1599 24.7076 23.2846 24.7074 23.4093 24.7071C23.7522 24.7065 24.0951 24.7064 24.4381 24.7063C24.8078 24.7062 25.1776 24.7056 25.5473 24.705C26.356 24.704 27.1648 24.7035 27.9735 24.7032C28.4785 24.703 28.9835 24.7026 29.4886 24.7023C30.8871 24.7013 32.2855 24.7005 33.684 24.7002C33.8183 24.7002 33.8183 24.7002 33.9553 24.7002C34.045 24.7002 34.1347 24.7002 34.2272 24.7001C34.409 24.7001 34.5908 24.7001 34.7726 24.7C34.8628 24.7 34.953 24.7 35.0459 24.7C36.5068 24.6997 37.9677 24.6983 39.4285 24.6965C40.9286 24.6946 42.4288 24.6937 43.9289 24.6936C44.771 24.6935 45.6132 24.6931 46.4553 24.6916C47.1725 24.6904 47.8898 24.69 48.607 24.6907C48.9728 24.691 49.3385 24.6909 49.7043 24.6898C50.0396 24.6888 50.3749 24.6889 50.7101 24.6899C50.831 24.69 50.9519 24.6898 51.0728 24.6891C52.4504 24.6818 53.6514 24.9751 54.6562 25.9688C55.8402 27.4223 55.75 28.4203 55.75 30.4219C43.375 30.4219 31 30.4219 18.25 30.4219C18.25 27.5411 18.25 27.5411 18.8359 26.6768C18.8802 26.61 18.9246 26.5433 18.9702 26.4745C19.7824 25.347 20.963 24.71 22.3626 24.7085Z" fill="white"/>
</svg>
