<svg width="75" height="76" viewBox="0 0 75 76" fill="none" xmlns="http://www.w3.org/2000/svg">
<rect y="0.5" width="75" height="75" rx="37.5" fill="#C1A286"/>
<path d="M21.8266 22.9792C21.959 22.9782 21.959 22.9782 22.094 22.9772C22.1897 22.9772 22.2854 22.9773 22.384 22.9774C22.4857 22.9769 22.5874 22.9763 22.6922 22.9758C22.9703 22.9744 23.2484 22.9741 23.5266 22.974C23.7007 22.9738 23.8747 22.9735 24.0488 22.9731C24.6571 22.9717 25.2653 22.971 25.8736 22.9711C26.4391 22.9712 27.0045 22.9696 27.57 22.9671C28.0567 22.9651 28.5433 22.9642 29.03 22.9643C29.3202 22.9644 29.6103 22.9639 29.9004 22.9623C30.2245 22.9605 30.5485 22.9612 30.8725 22.9621C30.9676 22.9613 31.0627 22.9604 31.1606 22.9595C31.9053 22.9649 32.537 23.0962 33.0876 23.6285C33.1846 23.721 33.1846 23.721 33.2835 23.8155C33.3498 23.8816 33.4161 23.9476 33.4844 24.0157C33.5534 24.0837 33.6225 24.1518 33.6936 24.2218C33.8792 24.4067 34.0636 24.5928 34.2472 24.7798C34.3679 24.9026 34.4889 25.025 34.6101 25.1473C34.9539 25.4944 35.2975 25.8418 35.6398 26.1904C35.8508 26.4051 36.0625 26.6191 36.2747 26.8326C36.3548 26.9135 36.4347 26.9947 36.5143 27.0762C36.6252 27.1898 36.7373 27.3024 36.8494 27.4149C36.9126 27.479 36.9758 27.5432 37.0409 27.6093C37.4281 27.9223 37.8392 27.9447 38.3208 27.9416C38.3816 27.9418 38.4423 27.9421 38.505 27.9423C38.7079 27.9429 38.9108 27.9424 39.1138 27.9419C39.2596 27.9421 39.4054 27.9424 39.5512 27.9428C39.8649 27.9434 40.1786 27.9436 40.4923 27.9434C40.9888 27.9432 41.4852 27.9443 41.9817 27.9457C43.3933 27.9493 44.8049 27.9512 46.2165 27.9517C46.9964 27.952 47.7763 27.9534 48.5561 27.956C49.0492 27.9576 49.5422 27.9578 50.0353 27.9569C50.3427 27.9567 50.6501 27.9578 50.9576 27.9593C51.0996 27.9597 51.2416 27.9596 51.3836 27.9589C52.3071 27.9547 53.1237 27.9853 53.8335 28.6483C54.4 29.2783 54.5234 29.9078 54.5209 30.7335C54.5213 30.8201 54.5217 30.9068 54.522 30.9961C54.523 31.2867 54.5229 31.5773 54.5227 31.8678C54.5232 32.0761 54.5237 32.2844 54.5243 32.4927C54.5256 32.9998 54.5261 33.507 54.5262 34.0141C54.5262 34.4264 54.5265 34.8387 54.527 35.2511C54.5284 36.4206 54.5291 37.5902 54.529 38.7598C54.529 38.8229 54.529 38.8859 54.529 38.9508C54.529 39.0139 54.529 39.077 54.529 39.142C54.5289 40.1645 54.5304 41.1871 54.5326 42.2096C54.5349 43.2601 54.5359 44.3106 54.5358 45.361C54.5358 45.9506 54.5362 46.5401 54.5379 47.1297C54.5393 47.6316 54.5396 48.1336 54.5386 48.6355C54.5381 48.8915 54.5382 49.1474 54.5394 49.4034C54.5406 49.6812 54.5399 49.9591 54.5387 50.237C54.5395 50.3173 54.5403 50.3976 54.5411 50.4803C54.5337 51.2515 54.2519 51.8932 53.7188 52.4532C53.2192 52.8469 52.7192 53.0194 52.0813 53.0202C52.0017 53.0206 52.0017 53.0206 51.9204 53.021C51.7426 53.0217 51.5648 53.0214 51.387 53.021C51.2582 53.0213 51.1294 53.0216 51.0006 53.0221C50.6467 53.023 50.2929 53.023 49.939 53.0228C49.5573 53.0228 49.1756 53.0236 48.7939 53.0244C48.0462 53.0257 47.2984 53.0261 46.5506 53.0262C45.9428 53.0263 45.3351 53.0266 44.7273 53.0271C43.0043 53.0285 41.2813 53.0292 39.5584 53.0291C39.419 53.0291 39.419 53.0291 39.2769 53.029C39.1839 53.029 39.0909 53.029 38.995 53.029C37.4875 53.029 35.98 53.0305 34.4725 53.0327C32.9248 53.0349 31.3771 53.036 29.8294 53.0358C28.9604 53.0358 28.0914 53.0362 27.2224 53.0379C26.4826 53.0393 25.7428 53.0397 25.0029 53.0386C24.6254 53.0381 24.248 53.0381 23.8705 53.0394C23.5249 53.0407 23.1792 53.0405 22.8335 53.0391C22.7086 53.0388 22.5837 53.0391 22.4588 53.04C21.8072 53.0442 21.2432 53.0351 20.6719 52.6876C20.6087 52.6509 20.5454 52.6143 20.4803 52.5765C19.956 52.189 19.6834 51.7483 19.5001 51.1251C19.4803 50.8995 19.4803 50.8995 19.48 50.6596C19.4794 50.5677 19.4789 50.4759 19.4784 50.3812C19.4787 50.2809 19.4789 50.1807 19.4792 50.0774C19.4789 49.9693 19.4785 49.8612 19.4781 49.7531C19.4771 49.4563 19.4772 49.1596 19.4773 48.8629C19.4774 48.5427 19.4765 48.2225 19.4758 47.9023C19.4745 47.2752 19.474 46.648 19.4739 46.0209C19.4739 45.511 19.4736 45.0011 19.4731 44.4913C19.4717 43.0454 19.471 41.5995 19.4711 40.1536C19.4711 40.0757 19.4711 39.9977 19.4711 39.9174C19.4711 39.8394 19.4711 39.7614 19.4711 39.681C19.4712 38.4165 19.4697 37.1521 19.4675 35.8876C19.4652 34.5889 19.4642 33.2903 19.4643 31.9916C19.4643 31.2627 19.4639 30.5337 19.4622 29.8048C19.4608 29.1841 19.4605 28.5634 19.4615 27.9427C19.462 27.6261 19.4621 27.3096 19.4607 26.993C19.4595 26.7029 19.4597 26.4128 19.4611 26.1227C19.4614 25.9687 19.4602 25.8147 19.459 25.6608C19.465 24.8906 19.6109 24.242 20.1482 23.6666C20.6311 23.2325 21.1716 22.9814 21.8266 22.9792ZM26.4538 35.2856C25.7567 36.2389 25.5649 37.2367 25.6719 38.3907C25.8328 39.2249 26.2826 40.0164 26.9219 40.5782C26.8264 40.8647 26.729 40.9119 26.4874 41.086C25.5408 41.8257 25.0083 42.9221 24.8126 44.0938C24.7278 44.8976 24.8889 45.6695 25.3957 46.3158C25.9633 46.892 26.6585 47.1477 27.4555 47.171C27.6618 47.1726 27.8677 47.1729 28.074 47.1718C28.1849 47.172 28.2959 47.1722 28.4069 47.1725C28.6385 47.1729 28.8701 47.1724 29.1017 47.1713C29.3965 47.1699 29.6912 47.1707 29.986 47.1721C30.2149 47.173 30.4438 47.1727 30.6727 47.1721C30.7813 47.1719 30.8899 47.1721 30.9985 47.1727C31.9687 47.1765 32.7042 47.0731 33.4502 46.4181C33.9762 45.8247 34.2303 45.2237 34.2117 44.4231C34.0936 43.1928 33.6123 42.0591 32.7032 41.2032C32.5012 41.0368 32.2948 40.8813 32.0782 40.7345C32.1778 40.5163 32.283 40.3593 32.4493 40.1876C33.1963 39.3362 33.4048 38.3168 33.3431 37.2195C33.2445 36.1821 32.6823 35.304 31.9021 34.6413C30.1539 33.3631 27.8597 33.6302 26.4538 35.2856ZM37.1612 35.8663C37.0378 36.1349 37.0164 36.3862 37.0782 36.672C37.2762 36.9235 37.3995 37.0395 37.7032 37.1407C37.8419 37.1484 37.9808 37.1516 38.1197 37.1522C38.2061 37.1528 38.2925 37.1533 38.3816 37.1539C38.5238 37.1542 38.5238 37.1542 38.669 37.1545C38.7689 37.1551 38.8687 37.1556 38.9716 37.1561C39.3029 37.1577 39.6342 37.1586 39.9654 37.1593C40.0796 37.1596 40.1937 37.16 40.3078 37.1603C40.8439 37.1618 41.38 37.1629 41.9161 37.1635C42.5347 37.1643 43.1532 37.1664 43.7718 37.1695C44.2501 37.1719 44.7284 37.173 45.2067 37.1733C45.4923 37.1735 45.7779 37.1742 46.0634 37.1761C46.3822 37.1783 46.7008 37.178 47.0195 37.1774C47.1139 37.1784 47.2083 37.1794 47.3055 37.1805C47.7989 37.1774 48.1123 37.1664 48.4844 36.8282C48.6492 36.6205 48.6407 36.5167 48.6358 36.2472C48.5484 35.9152 48.439 35.7894 48.1719 35.5782C47.9289 35.4957 47.7013 35.4899 47.4459 35.4891C47.3621 35.4887 47.2783 35.4882 47.192 35.4878C47.1005 35.4877 47.009 35.4876 46.9147 35.4875C46.818 35.4871 46.7213 35.4867 46.6216 35.4863C46.3566 35.4854 46.0915 35.4848 45.8265 35.4844C45.6607 35.4842 45.495 35.4839 45.3293 35.4836C44.8103 35.4825 44.2913 35.4817 43.7724 35.4814C43.1741 35.4811 42.5758 35.4797 41.9775 35.4774C41.5145 35.4757 41.0515 35.475 40.5885 35.4749C40.3122 35.4748 40.0359 35.4743 39.7597 35.4729C39.4513 35.4714 39.1429 35.4717 38.8345 35.4722C38.6979 35.4712 38.6979 35.4712 38.5586 35.4701C38.0175 35.4728 37.5854 35.4968 37.1612 35.8663ZM37.1563 40.0313C37.0312 40.2815 37.0392 40.5412 37.0782 40.8126C37.2183 41.0321 37.314 41.1649 37.5469 41.2813C37.6854 41.2895 37.8242 41.2926 37.963 41.2934C38.0954 41.2944 38.0954 41.2944 38.2305 41.2954C38.3278 41.2957 38.4251 41.2961 38.5254 41.2964C38.6275 41.297 38.7297 41.2977 38.8349 41.2983C39.1742 41.3004 39.5135 41.3016 39.8528 41.3027C39.9696 41.3031 40.0864 41.3035 40.2032 41.304C40.6891 41.3057 41.175 41.3071 41.6609 41.308C42.3572 41.3093 43.0535 41.3119 43.7498 41.3163C44.2394 41.3193 44.729 41.3209 45.2186 41.3213C45.511 41.3216 45.8034 41.3225 46.0958 41.325C46.4222 41.3278 46.7485 41.3275 47.0749 41.3269C47.2199 41.3288 47.2199 41.3288 47.3679 41.3308C47.913 41.3363 47.913 41.3363 48.3867 41.1003C48.6068 40.838 48.6468 40.6848 48.6407 40.3438C48.5145 40.0517 48.3625 39.8852 48.0938 39.7188C47.8873 39.6836 47.8873 39.6836 47.6584 39.6886C47.5255 39.6874 47.5255 39.6874 47.3899 39.6862C47.2931 39.6866 47.1962 39.6869 47.0964 39.6873C46.9941 39.6867 46.8918 39.6862 46.7864 39.6856C46.506 39.6842 46.2256 39.6843 45.9453 39.6848C45.7111 39.685 45.477 39.6845 45.2428 39.6841C44.6904 39.683 44.138 39.6831 43.5856 39.684C43.0158 39.6849 42.4461 39.6838 41.8764 39.6817C41.3871 39.68 40.8978 39.6794 40.4084 39.6799C40.1162 39.6802 39.8241 39.68 39.5319 39.6786C39.2061 39.6772 38.8803 39.6783 38.5545 39.6796C38.4578 39.6789 38.361 39.6781 38.2614 39.6774C38.1281 39.6785 38.1281 39.6785 37.9922 39.6797C37.9152 39.6797 37.8382 39.6797 37.7588 39.6797C37.487 39.7299 37.3548 39.843 37.1563 40.0313ZM37.2344 44.0938C37.0417 44.3829 37.0258 44.6178 37.0782 44.9532C37.2247 45.2125 37.3257 45.3169 37.6007 45.431C37.8888 45.5079 38.1365 45.5205 38.4347 45.5215C38.4902 45.5219 38.5458 45.5223 38.6031 45.5228C38.7856 45.5238 38.9681 45.5238 39.1506 45.5236C39.2783 45.5239 39.4059 45.5242 39.5335 45.5246C39.8006 45.5252 40.0677 45.5252 40.3348 45.5248C40.6761 45.5243 41.0174 45.5256 41.3587 45.5274C41.6222 45.5286 41.8856 45.5287 42.1491 45.5284C42.2749 45.5285 42.4007 45.5289 42.5265 45.5296C42.7028 45.5306 42.879 45.5301 43.0553 45.5292C43.2054 45.5293 43.2054 45.5293 43.3586 45.5293C43.7362 45.4902 44.0471 45.388 44.3389 45.1339C44.4623 44.8653 44.4837 44.614 44.4219 44.3282C44.2239 44.0767 44.1006 43.9607 43.7969 43.8595C43.6034 43.8512 43.412 43.8472 43.2184 43.8469C43.1597 43.8465 43.1009 43.8461 43.0404 43.8457C42.8461 43.8446 42.6518 43.844 42.4575 43.8436C42.3223 43.8431 42.1872 43.8427 42.052 43.8422C41.7685 43.8414 41.485 43.841 41.2015 43.8407C40.8387 43.8403 40.4759 43.8384 40.1131 43.8362C39.8338 43.8347 39.5545 43.8343 39.2753 43.8342C39.1415 43.8339 39.0078 43.8333 38.8741 43.8323C38.6867 43.831 38.4994 43.8311 38.3121 43.8316C38.2297 43.8305 38.2297 43.8305 38.1456 43.8294C37.7855 43.8325 37.5389 43.9016 37.2344 44.0938Z" fill="white"/>
<path d="M31.3164 42.121C32.0381 42.7096 32.4634 43.357 32.6051 44.2801C32.643 44.6698 32.6155 44.9293 32.3955 45.2557C32.2039 45.4531 32.1401 45.4965 31.8662 45.5114C31.7761 45.5121 31.686 45.5129 31.5932 45.5137C31.4913 45.5147 31.3893 45.5157 31.2843 45.5167C31.1724 45.5174 31.0605 45.518 30.9487 45.5185C30.8643 45.519 30.8643 45.519 30.7782 45.5195C30.4804 45.5211 30.1826 45.5222 29.8848 45.5229C29.5774 45.5238 29.2701 45.5265 28.9627 45.5296C28.7262 45.5316 28.4897 45.5323 28.2531 45.5326C28.1399 45.5329 28.0266 45.5339 27.9133 45.5353C27.7546 45.5372 27.5958 45.5369 27.4371 45.5366C27.3468 45.5371 27.2565 45.5375 27.1635 45.538C26.8696 45.4916 26.7419 45.3934 26.5312 45.1874C26.3064 44.7743 26.3696 44.3856 26.4531 43.9374C26.6935 43.1422 27.1293 42.4302 27.8578 42.0044C28.9888 41.4286 30.2395 41.3688 31.3164 42.121Z" fill="white"/>
<path d="M30.7409 35.7652C31.3255 36.2093 31.6932 36.7768 31.795 37.5102C31.8248 38.1926 31.627 38.7494 31.199 39.2793C30.8316 39.6712 30.3473 39.9333 29.8065 39.969C28.9154 39.9806 28.4357 39.879 27.7798 39.265C27.3176 38.7546 27.207 38.1916 27.2186 37.5209C27.2702 36.7781 27.6228 36.3032 28.1716 35.8125C28.8614 35.2955 30.0215 35.3336 30.7409 35.7652Z" fill="white"/>
</svg>
