<svg width="25" height="24" viewBox="0 0 25 24" fill="none" xmlns="http://www.w3.org/2000/svg">
<path d="M2.61 2.61C1 4.23533 1 6.83433 1 12.04V12.96C1 18.158 1 20.757 2.61 22.39C4.23533 24 6.83433 24 12.04 24H12.96C18.158 24 20.757 24 22.39 22.39C24 20.7647 24 18.1657 24 12.96V12.04C24 6.842 24 4.243 22.39 2.61C20.7647 1 18.1657 1 12.96 1H12.04C6.842 1 4.243 1 2.61 2.61ZM4.87933 7.99967H7.51667C7.601 12.385 9.533 14.2403 11.0663 14.6237V7.99967H13.5427V11.7793C15.053 11.6183 16.6477 9.89333 17.1843 7.992H19.653C19.4516 8.97617 19.0494 9.90824 18.4717 10.73C17.8939 11.5518 17.1529 12.2457 16.295 12.7683C17.2526 13.2448 18.0983 13.9189 18.7762 14.7462C19.4542 15.5735 19.949 16.5351 20.228 17.5677H17.5063C16.9237 15.7507 15.467 14.34 13.5427 14.1483V17.5677H13.236C7.992 17.5677 5.002 13.9797 4.87933 7.99967Z" fill="#4D7198"/>
</svg>
