<svg width="25" height="24" viewBox="0 0 25 24" fill="none" xmlns="http://www.w3.org/2000/svg">
<path d="M23.8337 12.0001C23.8337 9.75856 23.169 7.56738 21.9237 5.70362C20.6783 3.83987 18.9083 2.38724 16.8374 1.52945C14.7665 0.671659 12.4878 0.447221 10.2893 0.88452C8.09086 1.32182 6.07145 2.40121 4.48645 3.98621C2.90146 5.5712 1.82206 7.59061 1.38476 9.78906C0.947465 11.9875 1.1719 14.2663 2.0297 16.3372C2.88749 18.4081 4.34011 20.1781 6.20387 21.4234C8.06763 22.6687 10.2588 23.3334 12.5003 23.3334C15.5061 23.3334 18.3888 22.1394 20.5142 20.014C22.6396 17.8886 23.8337 15.0059 23.8337 12.0001Z" fill="#FC3F1D"/>
<path d="M13.9198 7.05992H12.8798C10.9665 7.05992 9.95984 8.02658 9.95984 9.45325C9.95984 11.0732 10.6598 11.8332 12.0865 12.7866L13.2665 13.5799L9.87318 18.6666H7.33984L10.3865 14.1332C8.63318 12.8732 7.65318 11.6532 7.65318 9.59992C7.65318 7.00658 9.45984 5.24658 12.8665 5.24658H16.2665V18.6666H13.9132V7.05992H13.9198Z" fill="white"/>
</svg>
