<svg xmlns="http://www.w3.org/2000/svg" version="1.1" xmlns:xlink="http://www.w3.org/1999/xlink" width="1000" height="1000"><g clip-path="url(#SvgjsClipPath1187)"><rect width="1000" height="1000" fill="#ffffff"></rect><g transform="matrix(2,0,0,2,0,0)"><svg xmlns="http://www.w3.org/2000/svg" version="1.1" xmlns:xlink="http://www.w3.org/1999/xlink" width="500" height="500"><svg width="500" height="500" viewBox="0 0 500 500" fill="none" xmlns="http://www.w3.org/2000/svg">
<rect width="500" height="500" fill="white"></rect>
<path d="M114.35 269.1H62.6L49.4 300H42.5L86.9 195H94.4L143.3 300H128.75L114.35 269.1ZM111.2 262.35L87.65 211.8H87.05L65.45 262.35H111.2ZM165.863 300V195H179.513V291.75H233.663V300H165.863ZM257.598 300V195H292.098C300.398 195 307.998 196.35 314.898 199.05C321.798 201.65 327.698 205.3 332.598 210C337.598 214.6 341.448 220.1 344.148 226.5C346.948 232.9 348.348 239.8 348.348 247.2C348.348 254.9 346.898 262 343.998 268.5C341.198 274.9 337.298 280.45 332.298 285.15C327.398 289.85 321.648 293.5 315.048 296.1C308.448 298.7 301.398 300 293.898 300H257.598ZM271.248 293.4H287.748C295.948 293.4 302.898 292.05 308.598 289.35C314.398 286.55 319.148 282.95 322.848 278.55C326.548 274.15 329.248 269.25 330.948 263.85C332.648 258.35 333.498 252.9 333.498 247.5C333.498 241.5 332.498 235.75 330.498 230.25C328.498 224.65 325.548 219.75 321.648 215.55C317.848 211.25 313.098 207.85 307.398 205.35C301.698 202.85 295.148 201.6 287.748 201.6H271.248V293.4ZM429.145 269.1H377.395L364.195 300H357.295L401.695 195H409.195L458.095 300H443.545L429.145 269.1ZM425.995 262.35L402.445 211.8H401.845L380.245 262.35H425.995Z" fill="#323433"></path>
<rect x="23.5" y="25.5" width="454" height="450" stroke="#A45B38" stroke-width="3"></rect>
</svg></svg></g></g><defs><clipPath id="SvgjsClipPath1187"><rect width="1000" height="1000" x="0" y="0" rx="0" ry="0"></rect></clipPath></defs></svg>