<svg width="75" height="75" viewBox="0 0 75 75" fill="none" xmlns="http://www.w3.org/2000/svg">
<g clip-path="url(#clip0_2165_28349)">
<path d="M12.2927 -0.058747C12.4348 -0.0597426 12.577 -0.0607382 12.7234 -0.061764C13.1975 -0.0645356 13.6715 -0.0641866 14.1455 -0.0638231C14.4863 -0.0651386 14.8271 -0.0666341 15.1679 -0.0682957C16.0923 -0.0721735 17.0166 -0.0732076 17.9409 -0.0734882C18.5188 -0.0738008 19.0968 -0.0747395 19.6747 -0.0759039C21.5881 -0.0797585 23.5015 -0.0818015 25.415 -0.0814716C25.518 -0.081454 25.621 -0.0814365 25.7271 -0.0814184C25.8818 -0.0813914 25.8818 -0.0813914 26.0397 -0.0813639C27.7103 -0.0811854 29.3809 -0.0853891 31.0515 -0.0915866C32.7698 -0.09791 34.488 -0.100933 36.2062 -0.100554C37.1698 -0.100442 38.1333 -0.101685 39.0968 -0.106345C40.0034 -0.11061 40.9099 -0.110627 41.8165 -0.107437C42.1483 -0.106978 42.4802 -0.108008 42.812 -0.110671C46.2513 -0.136479 46.2513 -0.136479 47.7707 1.13868C48.853 2.2366 49.1382 3.6206 49.1454 5.11758C49.1422 5.38626 49.1422 5.38626 49.139 5.66037C49.1391 5.85348 49.1392 6.0466 49.1393 6.24557C49.1394 6.76999 49.136 7.29433 49.1319 7.81873C49.1282 8.36866 49.1279 8.9186 49.1272 9.46854C49.1254 10.5076 49.1206 11.5467 49.1147 12.5858C49.1081 13.7697 49.1049 14.9536 49.102 16.1376C49.0959 18.5709 49.0856 21.0042 49.0725 23.4375C48.9853 23.4701 48.8981 23.5028 48.8083 23.5364C48.4073 23.6867 48.0066 23.8379 47.6059 23.9891C47.4688 24.0404 47.3317 24.0917 47.1904 24.1445C42.6124 25.8761 38.9537 29.2288 36.9143 33.6914C36.2212 35.2649 35.8459 36.8404 35.4494 38.5254C26.1682 38.5254 16.8869 38.5254 7.32444 38.5254C7.31263 29.9886 7.31263 29.9886 7.31013 26.4124C7.30956 25.5953 7.30897 24.7781 7.30834 23.961C7.30827 23.8586 7.30819 23.7562 7.30811 23.6507C7.30684 21.999 7.30453 20.3473 7.30183 18.6957C7.29909 16.9997 7.29749 15.3036 7.29687 13.6076C7.29649 12.6554 7.2956 11.7032 7.29346 10.751C7.29147 9.85427 7.29086 8.95759 7.2913 8.0609C7.29122 7.73224 7.29064 7.40357 7.28951 7.0749C7.28805 6.62509 7.28841 6.17532 7.28921 5.72551C7.28835 5.59641 7.2875 5.46731 7.28662 5.33429C7.29415 3.75503 7.54386 2.46499 8.64966 1.29377C9.77019 0.23313 10.7836 -0.0665846 12.2927 -0.058747ZM14.3557 6.88478C14.3557 15.7793 14.3557 24.6738 14.3557 33.8379C15.7575 33.8379 17.1594 33.8379 18.6037 33.8379C18.6037 24.9434 18.6037 16.0488 18.6037 6.88478C17.2019 6.88478 15.8 6.88478 14.3557 6.88478Z" fill="white"/>
<path d="M7.32422 42.7734C16.5571 42.7734 25.79 42.7734 35.3027 42.7734C35.5928 44.2961 35.5928 44.2961 35.8887 45.8496C37.3365 50.4892 39.9564 54.2168 44.0918 56.8359C43.793 60.4213 43.1521 63.9701 42.627 67.5293C33.249 67.5293 23.8711 67.5293 14.209 67.5293C14.209 69.9946 14.209 72.46 14.209 75C12.7104 75 11.2119 75 9.66797 75C9.66797 72.5347 9.66797 70.0693 9.66797 67.5293C8.89453 67.5293 8.12109 67.5293 7.32422 67.5293C7.32422 59.3599 7.32422 51.1904 7.32422 42.7734ZM14.3555 47.6074C14.3555 51.8613 14.3555 56.1152 14.3555 60.498C15.7573 60.498 17.1592 60.498 18.6035 60.498C18.6035 56.2441 18.6035 51.9902 18.6035 47.6074C17.2017 47.6074 15.7998 47.6074 14.3555 47.6074Z" fill="white"/>
<path d="M48.9259 27.9785C48.9259 31.9907 48.9259 36.0029 48.9259 40.1367C51.9713 40.1367 55.0167 40.1367 58.1544 40.1367C58.1544 36.1245 58.1544 32.1123 58.1544 27.9785C58.845 28.1166 59.3917 28.3352 60.0129 28.6469C60.1167 28.699 60.2206 28.7511 60.3276 28.8047C61.2093 29.261 61.9529 29.8097 62.6954 30.4688C62.8427 30.5849 62.8427 30.5849 62.9929 30.7034C65.7251 32.9042 67.2294 36.4388 67.6209 39.8529C67.8543 42.5946 67.3262 45.3048 66.0645 47.7539C65.9926 47.8953 65.9206 48.0368 65.8465 48.1825C65.1953 49.3809 64.3717 50.3017 63.4278 51.2695C63.3423 51.3658 63.2567 51.4621 63.1686 51.5614C61.9153 52.9384 60.1286 53.7679 58.4473 54.4922C58.6738 56.3248 58.926 58.1525 59.2062 59.9775C59.2556 60.2994 59.3047 60.6214 59.3537 60.9433C59.3869 61.1616 59.4201 61.3799 59.4533 61.5981C59.4698 61.7069 59.4864 61.8156 59.5034 61.9277C59.5882 62.4842 59.6739 63.0407 59.761 63.5969C59.847 64.1466 59.9308 64.6966 60.0132 65.2469C60.0444 65.4526 60.0764 65.6582 60.1093 65.8637C60.4667 68.1043 60.4748 70.2293 59.2049 72.191C58.1048 73.6399 56.7016 74.5774 54.9317 75C52.7636 75.2245 50.9018 74.942 49.1513 73.5723C47.77 72.3461 46.9692 70.8321 46.7286 68.9941C46.7414 67.2714 47.0102 65.5718 47.2739 63.8735C47.3132 63.6152 47.3524 63.3568 47.3915 63.0985C47.4935 62.4264 47.5966 61.7545 47.7 61.0827C47.8663 60.0011 48.0308 58.9192 48.1953 57.8373C48.2527 57.4608 48.3106 57.0844 48.3686 56.708C48.4037 56.4787 48.4388 56.2494 48.4738 56.0201C48.4901 55.9158 48.5063 55.8114 48.523 55.704C48.5852 55.2946 48.6329 54.9071 48.6329 54.4922C48.3938 54.3882 48.3938 54.3882 48.1499 54.2822C46.7494 53.6578 45.5711 52.984 44.3848 52.002C44.2929 51.9338 44.2009 51.8656 44.1062 51.7954C41.4431 49.7464 39.9673 46.1927 39.4925 42.9623C39.4519 42.6061 39.4238 42.2524 39.4044 41.8945C39.3983 41.7952 39.3923 41.6959 39.3861 41.5936C39.2824 38.1584 40.4877 34.6454 42.7735 32.0801C42.8617 31.9711 42.9499 31.8622 43.0407 31.7499C44.4548 30.0453 46.2133 29.0398 48.1934 28.125C48.4864 27.9785 48.4864 27.9785 48.9259 27.9785Z" fill="white"/>
</g>
<defs>
<clipPath id="clip0_2165_28349">
<rect width="75" height="75" fill="white"/>
</clipPath>
</defs>
</svg>
