<svg width="75" height="75" viewBox="0 0 75 75" fill="none" xmlns="http://www.w3.org/2000/svg">
<path d="M44.9898 9.47712C49.532 13.451 52.5992 19.4408 53.1429 25.4633C53.4477 30.045 53.0315 34.7049 51.709 39.1114C51.5585 39.1152 51.408 39.119 51.2529 39.1229C49.4912 39.1866 47.8976 39.4371 46.582 40.7227C46.0088 41.3768 45.7946 42.0439 45.6098 42.8874C45.5719 43.0583 45.534 43.2291 45.495 43.4052C45.467 43.5351 45.439 43.6651 45.4101 43.7989C45.2856 43.8002 45.2856 43.8002 45.1586 43.8015C44.2887 43.8109 43.4189 43.8233 42.5491 43.8374C42.2252 43.8422 41.9013 43.8463 41.5774 43.8497C41.1097 43.8546 40.6421 43.8623 40.1745 43.8704C40.0314 43.8714 39.8884 43.8723 39.741 43.8733C38.2948 43.9037 36.9747 44.188 35.9161 45.2329C34.5435 46.7141 34.4857 48.2955 34.551 50.226C34.6238 51.399 35.0789 52.3316 35.8887 53.1739C36.3984 53.6083 36.9435 53.9748 37.5 54.3458C37.5666 54.7166 37.5666 54.7166 37.5824 55.1913C37.5923 55.4578 37.5923 55.4578 37.6024 55.7297C37.6069 55.9251 37.6111 56.1205 37.615 56.3159C37.6172 56.4147 37.6193 56.5135 37.6215 56.6153C37.6324 57.1402 37.6402 57.6651 37.6458 58.19C37.651 58.621 37.6621 59.0511 37.6788 59.4818C37.8289 63.4294 37.8289 63.4294 36.8546 64.5828C36.4995 64.9314 36.1279 65.2446 35.7326 65.5466C35.2655 65.9174 34.8679 66.3524 34.457 66.7832C34.296 66.9455 34.1344 67.1072 33.9723 67.2685C33.6467 67.5928 33.3217 67.9179 32.9973 68.2435C31.9379 69.3037 30.8535 70.3109 29.6814 71.2464C29.5594 71.3442 29.4374 71.442 29.3117 71.5428C28.8321 71.9083 28.472 71.9933 27.8618 71.9823C27.2376 71.8694 26.8287 71.4575 26.3672 71.045C26.1899 70.8887 26.1899 70.8887 26.009 70.7291C25.7699 70.5157 25.5322 70.3009 25.296 70.0843C25.0891 69.8963 24.8814 69.7089 24.668 69.5283C23.7114 68.7147 22.8318 67.8248 21.946 66.9359C21.6711 66.6603 21.3955 66.3854 21.1198 66.1106C20.2497 65.2411 19.3966 64.369 18.6035 63.4278C18.4505 63.2532 18.2971 63.0789 18.1434 62.9048C17.1556 61.778 16.2007 60.6329 15.2896 59.4431C15.1537 59.2657 15.0173 59.0886 14.8804 58.9118C13.1366 56.6571 11.5369 54.2895 10.1107 51.821C9.96228 51.5649 9.81121 51.3106 9.65994 51.0562C7.88038 48.0219 6.39551 44.7869 5.27342 41.4552C5.22647 41.316 5.17952 41.1767 5.13115 41.0333C2.49522 33.0864 1.91998 24.2941 5.74055 16.6435C8.82402 10.6603 14.1456 6.23253 20.5278 4.1417C29.1676 1.45251 38.2229 3.62799 44.9898 9.47712ZM19.7754 18.8966C19.6638 18.9942 19.5522 19.0918 19.4372 19.1924C17.1526 21.3265 15.8415 24.4721 15.6441 27.566C15.5961 30.8957 16.6863 33.9623 18.8965 36.4747C19.0429 36.6421 19.0429 36.6421 19.1923 36.8129C21.3264 39.0974 24.472 40.4086 27.5659 40.606C30.8956 40.654 33.9622 39.5637 36.4746 37.3536C36.5862 37.256 36.6978 37.1584 36.8128 37.0578C38.9036 35.1047 40.4514 32.0198 40.5762 29.1505C40.5837 29.0039 40.5913 28.8574 40.599 28.7064C40.689 25.3793 39.5552 22.2783 37.3535 19.7755C37.2559 19.6639 37.1582 19.5523 37.0577 19.4373C35.1046 17.3465 32.0197 15.7987 29.1504 15.6739C29.0038 15.6664 28.8573 15.6588 28.7063 15.651C25.3792 15.5611 22.2782 16.6949 19.7754 18.8966Z" fill="white"/>
<path d="M40.5763 54.6387C49.9059 54.6387 59.2355 54.6387 68.8478 54.6387C68.8599 57.0255 68.8719 59.4122 68.8844 61.8713C68.8897 62.6228 68.8951 63.3742 68.9006 64.1484C68.9032 65.0716 68.9032 65.0716 68.9037 65.5049C68.9046 65.8051 68.9066 66.1053 68.9096 66.4055C68.914 66.8624 68.9145 67.3192 68.9143 67.7761C68.9164 67.9081 68.9185 68.0401 68.9207 68.176C68.914 69.2078 68.7137 70.2481 68.0055 71.0379C67.1393 71.8326 66.3548 71.967 65.2131 71.9421C65.0977 71.9408 64.9822 71.9395 64.8632 71.9381C64.5801 71.9347 64.2969 71.9294 64.0138 71.9238C64.0129 71.7841 64.0121 71.6445 64.0112 71.5006C64.0028 70.1836 63.9921 68.8667 63.9793 67.5499C63.9727 66.8729 63.967 66.1959 63.963 65.5188C63.9592 64.8653 63.9533 64.2119 63.9459 63.5585C63.9435 63.3093 63.9418 63.0601 63.9409 62.8109C63.9395 62.4615 63.9354 62.1124 63.9306 61.7631C63.9309 61.6602 63.9311 61.5574 63.9313 61.4515C63.9191 60.8174 63.8172 60.4157 63.4279 59.9121C62.9609 59.6008 62.8461 59.5824 62.3111 59.5819C62.1721 59.5811 62.033 59.5803 61.8898 59.5794C61.6614 59.5803 61.6614 59.5803 61.4283 59.5812C61.2678 59.5807 61.1072 59.5802 60.9417 59.5797C60.4095 59.5784 59.8774 59.5792 59.3452 59.5802C58.9761 59.58 58.607 59.5797 58.2379 59.5794C57.4637 59.5789 56.6895 59.5796 55.9153 59.5809C55.0206 59.5825 54.1259 59.582 53.2311 59.5804C52.3702 59.5789 51.5093 59.5791 50.6485 59.5799C50.2822 59.5801 49.9159 59.5799 49.5497 59.5792C49.038 59.5785 48.5264 59.5796 48.0147 59.5812C47.7867 59.5803 47.7867 59.5803 47.5542 59.5794C47.345 59.5807 47.345 59.5807 47.1316 59.5819C47.0106 59.582 46.8897 59.5822 46.7651 59.5823C46.3982 59.6233 46.1635 59.7205 45.8497 59.9121C45.4688 60.4228 45.5119 61.0019 45.5101 61.6134C45.5079 61.7807 45.5079 61.7807 45.5056 61.9514C45.5011 62.3191 45.4986 62.6869 45.4961 63.0547C45.4934 63.31 45.4905 63.5653 45.4875 63.8207C45.48 64.492 45.4742 65.1634 45.4687 65.8348C45.4629 66.5202 45.4554 67.2056 45.448 67.8909C45.4339 69.2352 45.4215 70.5795 45.4103 71.9238C45.0095 71.93 44.6089 71.9346 44.2081 71.9381C44.0951 71.9401 43.982 71.942 43.8656 71.9439C42.8679 71.9506 42.2276 71.7946 41.4947 71.0964C40.6364 70.1627 40.5336 69.3586 40.543 68.1254C40.543 67.9772 40.543 67.829 40.5429 67.6763C40.5431 67.1976 40.5454 66.7189 40.5477 66.2401C40.5481 65.9442 40.5484 65.6482 40.5486 65.3523C40.5501 64.2561 40.5542 63.1598 40.558 62.0636C40.564 59.6134 40.5701 57.1631 40.5763 54.6387Z" fill="white"/>
<path d="M50.2522 42.1281C50.3568 42.1271 50.4614 42.1261 50.5692 42.125C50.9152 42.1223 51.2612 42.1229 51.6072 42.1237C51.8479 42.1231 52.0885 42.1223 52.3292 42.1214C52.8338 42.1201 53.3384 42.1205 53.8431 42.1219C54.4892 42.1236 55.1352 42.1206 55.7813 42.1164C56.2784 42.1137 56.7756 42.1137 57.2727 42.1146C57.5109 42.1146 57.749 42.1137 57.9872 42.1119C58.3207 42.1097 58.654 42.1113 58.9875 42.1138C59.2719 42.1138 59.2719 42.1138 59.5621 42.1138C60.1404 42.1993 60.3808 42.3651 60.7911 42.7732C60.9843 43.1595 60.9552 43.4468 60.9542 43.8793C60.9542 44.0518 60.9542 44.2243 60.9542 44.4019C60.9534 44.5839 60.9527 44.7658 60.9519 44.9533C60.9518 45.12 60.9516 45.2867 60.9515 45.4585C60.9507 46.0832 60.9487 46.7079 60.9468 47.3325C60.9437 48.7283 60.9407 50.1242 60.9376 51.5623C56.7804 51.5623 52.6232 51.5623 48.34 51.5623C48.3264 49.5546 48.3264 49.5546 48.3125 47.5065C48.3085 47.0849 48.3045 46.6633 48.3004 46.2289C48.2991 45.8943 48.298 45.5597 48.297 45.2251C48.2948 45.0517 48.2925 44.8783 48.2902 44.6997C48.2902 44.5333 48.2901 44.3668 48.2901 44.1953C48.2886 43.9792 48.2886 43.9792 48.2871 43.7586C48.3502 43.2817 48.501 43.0162 48.7794 42.6267C48.8397 42.5403 48.8999 42.4539 48.962 42.3649C49.3745 42.0796 49.7573 42.1301 50.2522 42.1281Z" fill="white"/>
<path d="M48.3398 62.4023C49.9351 62.4023 51.5303 62.4023 53.1738 62.4023C53.1738 65.5444 53.1738 68.6865 53.1738 71.9238C51.5786 71.9238 49.9834 71.9238 48.3398 71.9238C48.3398 68.7817 48.3398 65.6396 48.3398 62.4023Z" fill="white"/>
<path d="M56.25 62.4023C57.7969 62.4023 59.3438 62.4023 60.9375 62.4023C60.9375 65.5444 60.9375 68.6865 60.9375 71.9238C59.3906 71.9238 57.8438 71.9238 56.25 71.9238C56.25 68.7817 56.25 65.6396 56.25 62.4023Z" fill="white"/>
<path d="M39.0574 46.8584C39.1982 46.8585 39.3389 46.8585 39.484 46.8585C39.6362 46.8592 39.7885 46.86 39.9454 46.8608C40.1011 46.861 40.2567 46.8612 40.4171 46.8614C40.9156 46.8622 41.4142 46.8641 41.9127 46.8659C42.2501 46.8667 42.5875 46.8673 42.9249 46.8679C43.7533 46.8694 44.5816 46.8723 45.41 46.8751C45.41 48.4219 45.41 49.9688 45.41 51.5626C44.4219 51.576 43.4342 51.5877 42.4461 51.5948C42.1101 51.5977 41.7741 51.6017 41.4381 51.6068C40.9548 51.6139 40.4717 51.6172 39.9884 51.6198C39.8383 51.6228 39.6883 51.6258 39.5337 51.629C38.4885 51.6293 38.4885 51.6293 37.9211 51.2843C37.365 50.6616 37.4625 50.0464 37.4541 49.2463C37.4498 49.114 37.4456 48.9817 37.4412 48.8455C37.4351 48.2108 37.438 47.8544 37.7774 47.3037C38.2262 46.8932 38.464 46.8569 39.0574 46.8584Z" fill="white"/>
<path d="M64.0137 46.875C65.0018 46.8582 65.9894 46.8436 66.9775 46.8348C67.3136 46.8311 67.6496 46.8261 67.9856 46.8197C68.4689 46.8109 68.952 46.8067 69.4353 46.8035C69.5853 46.7997 69.7354 46.7959 69.8899 46.792C70.9366 46.7916 70.9366 46.7916 71.5026 47.2274C71.9718 47.8763 71.9603 48.4014 71.9696 49.1821C71.9739 49.2992 71.9781 49.4163 71.9825 49.5369C71.991 50.333 71.8714 50.7865 71.3379 51.416C70.9837 51.5931 70.7617 51.5802 70.3662 51.5791C70.2255 51.5791 70.0847 51.5791 69.9397 51.5791C69.7874 51.5783 69.6351 51.5776 69.4782 51.5768C69.3226 51.5766 69.1669 51.5764 69.0066 51.5762C68.508 51.5754 68.0095 51.5735 67.511 51.5717C67.1736 51.5709 66.8362 51.5702 66.4988 51.5696C65.6704 51.5682 64.842 51.5653 64.0137 51.5625C64.0137 50.0156 64.0137 48.4687 64.0137 46.875Z" fill="white"/>
</svg>
