<svg width="102" height="75" viewBox="0 0 102 75" fill="none" xmlns="http://www.w3.org/2000/svg">
<path d="M20.8376 0.0548829C21.0451 0.0539199 21.2525 0.0529569 21.4662 0.0519646C22.1606 0.0492757 22.855 0.0496218 23.5494 0.0499729C24.0476 0.0487009 24.5457 0.0472544 25.0439 0.0456466C26.3968 0.0418904 27.7498 0.040895 29.1028 0.0406239C30.0901 0.0402711 31.0775 0.0390385 32.0649 0.0377179C34.7211 0.0341885 37.3772 0.0325988 40.0334 0.0329016C40.1841 0.0329186 40.3349 0.0329356 40.4902 0.0329531C40.7165 0.0329791 40.7166 0.0329791 40.9475 0.0330057C43.3923 0.0331784 45.8371 0.0291124 48.2819 0.0231174C50.7947 0.0170047 53.3074 0.0140763 55.8202 0.0144431C57.2299 0.014584 58.6396 0.0133432 60.0494 0.00884139C61.3756 0.00472167 62.7019 0.0046956 64.0282 0.00778576C64.5142 0.00822978 65.0003 0.00722915 65.4863 0.00465697C66.1514 0.0013661 66.8162 0.00335557 67.4813 0.00662554C67.7678 0.0033459 67.7678 0.0033459 68.06 0C69.9127 0.0200409 71.5729 0.595374 72.9401 1.87514C74.2983 3.38924 74.8156 4.96147 74.8002 6.98788C74.8007 7.25119 74.8007 7.25119 74.8012 7.51982C74.8019 8.10626 74.7996 8.69264 74.7973 9.27907C74.7972 9.70015 74.7972 10.1212 74.7975 10.5423C74.7976 11.6844 74.7951 12.8264 74.7922 13.9685C74.7895 15.1624 74.7893 16.3564 74.7888 17.5503C74.7874 19.8107 74.784 22.0711 74.7797 24.3315C74.775 26.9051 74.7726 29.4787 74.7705 32.0523C74.7661 37.346 74.7586 42.6396 74.7492 47.9333C74.8778 47.8988 75.0064 47.8643 75.1389 47.8287C75.6916 47.6985 76.196 47.6932 76.7637 47.6925C77.0983 47.6921 77.0983 47.6921 77.4396 47.6917C77.6714 47.6925 77.9032 47.6933 78.142 47.6941C78.3738 47.6933 78.6056 47.6925 78.8445 47.6917C79.0675 47.6919 79.2906 47.6922 79.5204 47.6925C79.8254 47.6928 79.8254 47.6928 80.1367 47.6932C80.6867 47.7207 80.6867 47.7207 81.5349 47.9333C81.5349 37.7632 81.5349 27.5932 81.5349 17.1149C89.593 17.1149 89.593 17.1149 90.8653 17.9651C91.2351 18.3487 91.2351 18.3487 91.5346 18.743C91.6491 18.892 91.7636 19.041 91.8816 19.1945C92.001 19.3543 92.1205 19.5141 92.2436 19.6787C92.3721 19.8474 92.5007 20.0161 92.6331 20.1899C93.656 21.5381 94.6584 22.9019 95.656 24.2691C96.7529 25.7703 97.877 27.2499 99.0098 28.724C101.917 32.5209 101.917 32.5209 101.923 33.7673C101.926 34.0586 101.926 34.0586 101.928 34.3559C101.928 34.5696 101.929 34.7834 101.93 35.0036C101.931 35.2283 101.932 35.453 101.934 35.6844C101.938 36.4309 101.941 37.1774 101.943 37.9239C101.944 38.1788 101.944 38.4337 101.945 38.6963C101.95 40.0466 101.953 41.3968 101.955 42.747C101.957 44.1397 101.964 45.5322 101.973 46.9249C101.978 47.997 101.98 49.0692 101.981 50.1414C101.982 50.6545 101.984 51.1677 101.988 51.6808C101.993 52.4011 101.993 53.1213 101.992 53.8416C101.996 54.1571 101.996 54.1571 102 54.4789C101.986 56.4005 101.459 58.0866 100.133 59.51C98.3202 61.1434 96.5468 61.3862 94.1786 61.3498C93.9416 61.3479 93.7046 61.346 93.4605 61.344C92.8781 61.3391 92.2958 61.3321 91.7135 61.3233C91.7173 61.4915 91.7212 61.6598 91.7252 61.8331C91.7725 65.3853 90.3877 68.4921 87.9665 71.0762C85.5268 73.5442 82.2253 74.959 78.7774 74.996C74.5632 74.9696 71.1137 73.8937 68.0885 70.8569C65.5668 68.0702 64.5705 65.0217 64.5705 61.3233C58.9723 61.3233 53.3741 61.3233 47.6062 61.3233C47.6062 62.1649 47.6062 63.0066 47.6062 63.8738C47.0107 67.251 45.0504 70.3228 42.3545 72.4028C38.7445 74.796 35.1982 75.3131 30.945 74.842C27.5924 74.1324 24.4795 71.9253 22.597 69.081C21.0719 66.4674 20.3728 64.3434 20.4632 61.3233C20.2271 61.3408 19.9909 61.3583 19.7476 61.3764C18.1247 61.3707 16.6608 60.659 15.4866 59.5599C14.0563 57.9654 13.6104 56.3419 13.6361 54.2381C13.6367 54.0512 13.6373 53.8643 13.6379 53.6717C13.6403 53.0784 13.6456 52.4851 13.651 51.8918C13.6531 51.488 13.6551 51.0843 13.6568 50.6805C13.6615 49.6939 13.6688 48.7073 13.6775 47.7207C13.5428 47.7252 13.4082 47.7296 13.2694 47.7342C12.6545 47.752 12.0396 47.763 11.4244 47.7738C11.2126 47.781 11.0007 47.7881 10.7825 47.7954C9.47622 47.8128 8.73319 47.7448 7.73998 46.8706C6.97058 46.0588 6.82603 45.4077 6.78574 44.3201C6.82603 43.2325 6.97058 42.5813 7.73998 41.7696C8.85526 40.8305 9.72044 40.7987 11.112 40.8135C11.3201 40.8124 11.5282 40.8112 11.7426 40.81C12.1931 40.808 12.6437 40.808 13.0942 40.8097C13.8084 40.8124 14.5224 40.81 15.2366 40.8063C16.4961 40.8006 17.7555 40.7994 19.0151 40.7997C21.0286 40.8002 23.0422 40.7971 25.0557 40.7879C25.7574 40.7858 26.4589 40.7876 27.1605 40.7897C27.5936 40.7884 28.0267 40.787 28.4599 40.7853C28.6532 40.7869 28.8466 40.7886 29.0459 40.7903C30.2912 40.7805 31.418 40.6171 32.5503 40.0693C33.524 39.069 33.6859 38.3543 33.6703 36.9966C33.5827 36.2028 33.2907 35.7676 32.7624 35.1808C31.7636 34.4365 30.7936 34.3046 29.573 34.3028C29.3628 34.3019 29.1526 34.3011 28.9361 34.3002C28.7079 34.3003 28.4798 34.3004 28.2447 34.3005C28.0025 34.2998 27.7604 34.2991 27.5109 34.2983C26.9854 34.2967 26.46 34.2956 25.9346 34.2948C25.1031 34.2933 24.2716 34.29 23.4401 34.2861C23.1549 34.2847 22.8698 34.2834 22.5847 34.282C22.3706 34.281 22.3706 34.281 22.1521 34.28C20.2174 34.271 18.2827 34.264 16.3479 34.2614C14.9016 34.2594 13.4554 34.253 12.0091 34.2441C11.4579 34.2415 10.9068 34.2404 10.3556 34.2409C9.58501 34.2414 8.8146 34.2367 8.04403 34.2308C7.8163 34.2322 7.58856 34.2336 7.35392 34.2351C6.06959 34.2189 5.32616 34.124 4.34711 33.268C3.57771 32.4562 3.43316 31.8051 3.39287 30.7175C3.43316 29.6299 3.57771 28.9788 4.34711 28.167C5.50536 27.155 6.53547 27.1973 8.03057 27.211C8.27175 27.2098 8.51293 27.2086 8.76142 27.2074C9.28417 27.2054 9.80693 27.2054 10.3297 27.2071C11.1579 27.2098 11.9859 27.2074 12.8141 27.2037C14.4237 27.1972 16.0333 27.1968 17.6429 27.1972C19.8286 27.1976 22.0144 27.194 24.2001 27.1853C25.0145 27.1832 25.8288 27.1851 26.6432 27.1872C27.1449 27.1859 27.6467 27.1844 28.1484 27.1827C28.3735 27.1844 28.5986 27.186 28.8306 27.1877C30.1502 27.1787 31.3527 27.0627 32.5503 26.4667C33.524 25.4664 33.6859 24.7517 33.6703 23.394C33.5827 22.6002 33.2907 22.165 32.7624 21.5783C31.7207 20.8019 30.7143 20.7018 29.4442 20.7002C29.0861 20.6989 29.0861 20.6989 28.7208 20.6976C28.331 20.6978 28.331 20.6978 27.9332 20.698C27.5107 20.6968 27.0882 20.6957 26.6657 20.6945C26.2125 20.6934 25.7594 20.6928 25.3062 20.6923C24.3607 20.691 23.4152 20.6875 22.4697 20.6835C22.1456 20.6821 21.8215 20.6808 21.4974 20.6794C21.3352 20.6788 21.1729 20.6781 21.0057 20.6774C18.8054 20.6685 16.605 20.6615 14.4046 20.6588C12.919 20.6571 11.4334 20.6523 9.94781 20.6441C9.16222 20.6399 8.37669 20.6373 7.59108 20.6383C6.71487 20.6395 5.83881 20.6341 4.96262 20.6282C4.70316 20.6296 4.44369 20.631 4.17637 20.6325C2.82826 20.6176 1.97108 20.5893 0.954245 19.6654C0.18484 18.8537 0.0402893 18.2025 0 17.1149C0.0402893 16.0273 0.18484 15.3762 0.954245 14.5645C2.15833 13.4712 3.38322 13.5958 4.94916 13.6084C5.22343 13.6072 5.4977 13.606 5.78028 13.6048C6.37527 13.6023 6.97017 13.6024 7.56515 13.6045C8.50734 13.6078 9.44945 13.6049 10.3916 13.6011C12.2226 13.5946 14.0536 13.5943 15.8846 13.5947C18.2129 13.595 20.5411 13.5927 22.8694 13.5843C23.8045 13.5812 24.7396 13.5812 25.6747 13.5838C26.1173 13.5846 26.5599 13.5839 27.0024 13.5826C27.54 13.581 28.0777 13.5817 28.6153 13.5851C30.0043 13.5768 31.2926 13.5086 32.5503 12.8641C33.524 11.8639 33.6859 11.1491 33.6703 9.79143C33.5827 8.99764 33.2907 8.56244 32.7624 7.97571C31.587 7.09969 30.3843 7.09313 28.9642 7.08191C28.7986 7.0798 28.633 7.0777 28.4623 7.07553C27.9174 7.06884 27.3724 7.06356 26.8274 7.0583C26.4485 7.05392 26.0697 7.04946 25.6909 7.04491C24.6956 7.0332 23.7003 7.02269 22.705 7.01243C21.6887 7.00174 20.6724 6.98991 19.656 6.97818C17.6632 6.95535 15.6704 6.93378 13.6775 6.91301C13.6562 4.9449 14.0584 3.40425 15.4369 1.92495C17.0582 0.463942 18.7036 0.0475993 20.8376 0.0548829ZM28.8659 56.9131C27.495 58.7047 27.2143 60.5931 27.461 62.8111C27.8627 64.5403 28.8144 65.9703 30.284 66.9705C32.1103 68.0243 34.0554 68.2585 36.1329 67.7667C38.2287 66.9891 39.42 65.6513 40.3964 63.6612C40.9797 61.946 40.8032 59.8062 40.0377 58.1867C38.9255 56.2766 37.3564 55.1786 35.2176 54.5942C32.8235 54.2241 30.5107 55.1609 28.8659 56.9131ZM72.9732 56.9131C71.6023 58.7047 71.3216 60.5931 71.5683 62.8111C71.97 64.5403 72.9217 65.9703 74.3913 66.9705C76.2176 68.0243 78.1627 68.2585 80.2402 67.7667C82.336 66.9891 83.5273 65.6513 84.5037 63.6612C85.087 61.946 84.9105 59.8062 84.145 58.1867C83.0328 56.2766 81.4637 55.1786 79.3249 54.5942C76.9308 54.2241 74.618 55.1609 72.9732 56.9131Z" fill="white"/>
</svg>
